<?xml version="1.0" encoding="UTF-8"?>
<svg id="_レイヤー_2" data-name="レイヤー 2" xmlns="http://www.w3.org/2000/svg" viewBox="0 0 264.78 150.68">
  <defs>
    <style>
      .cls-1 {
        fill: #f9b12c;
      }

      .cls-2 {
        fill: #d96868;
      }

      .cls-3 {
        fill: #ffe9a7;
      }
    </style>
  </defs>
  <g id="_レイヤー_1-2" data-name="レイヤー 1">
    <g>
      <path class="cls-1" d="M127.25,113.29c4.44-.1,7.65,4.22,6.28,8.45h0c-.71,2.15-2.01,4.09-3.9,5.82-1.89,1.73-4.31,3.4-7.26,5-8.53,4.62-16.74,7.98-24.63,10.1-7.89,2.12-16.48,3.17-25.78,3.17-10.84,0-20.72-1.67-29.63-5-8.92-3.33-16.51-8.18-22.8-14.53-6.29-6.35-11.11-14.05-14.48-23.09-3.37-9.04-5.05-19.14-5.05-30.3s1.64-21,4.91-30.11c3.27-9.11,8.08-16.84,14.43-23.18s14.08-11.21,23.18-14.57C51.63,1.68,61.95,0,73.5,0c9.49,0,17.89,1.27,25.2,3.8,7.31,2.53,13.24,5.72,17.8,9.57,4.55,3.85,7.98,7.92,10.29,12.22,2.31,4.3,3.46,8.11,3.46,11.45,0,3.59-1.33,6.65-3.99,9.19-2.66,2.53-5.85,3.8-9.57,3.8-2.05,0-4.02-.48-5.92-1.44-1.86-.94-3.42-2.26-4.69-3.95-.05-.06-.09-.13-.14-.2-3.5-5.46-6.46-9.6-8.88-12.4-2.44-2.82-5.72-5.19-9.86-7.12-4.14-1.92-9.41-2.89-15.82-2.89s-12.51,1.14-17.7,3.42c-5.19,2.28-9.64,5.58-13.32,9.91-3.69,4.33-6.51,9.64-8.47,15.92-1.96,6.29-2.93,13.24-2.93,20.88,0,16.55,3.8,29.28,11.4,38.19,7.6,8.92,18.2,13.37,31.79,13.37,6.6,0,12.81-.87,18.61-2.6,5.26-1.57,10.59-3.74,15.98-6.53,1.1-.57,2.32-.9,3.56-.92l16.94-.37Z"/>
      <g>
        <rect class="cls-3" x="103.07" y="64.98" width="64" height="14.47" rx="7.24" ry="7.24"/>
        <rect class="cls-2" x="103.07" y="84.19" width="32" height="13" rx="6.5" ry="6.5"/>
      </g>
      <rect class="cls-1" x="117.03" y="110.06" width="64" height="14.47" rx="7.24" ry="7.24" transform="translate(266.32 -31.74) rotate(90)"/>
      <path class="cls-3" d="M223.28,63.67c8.72,0,16.21,1.77,22.47,5.31,6.26,3.54,10.99,8.57,14.21,15.09,3.21,6.52,4.82,14.19,4.82,22.99,0,6.51-.88,12.42-2.64,17.74-1.76,5.32-4.4,9.93-7.92,13.83-3.52,3.9-7.84,6.89-12.97,8.95-5.13,2.07-11,3.1-17.62,3.1s-12.47-1.06-17.68-3.19c-5.2-2.12-9.55-5.12-13.03-8.98-3.48-3.86-6.11-8.51-7.89-13.95-1.78-5.43-2.67-11.31-2.67-17.62s.93-12.4,2.78-17.79c1.86-5.4,4.54-9.99,8.06-13.77,3.52-3.79,7.81-6.69,12.86-8.7,5.05-2.01,10.79-3.01,17.22-3.01ZM247.5,106.95c0-6.16-1-11.5-2.98-16.01-1.99-4.51-4.83-7.93-8.52-10.25-3.69-2.31-7.93-3.47-12.71-3.47-3.41,0-6.55.64-9.44,1.92-2.89,1.28-5.38,3.15-7.46,5.6-2.09,2.45-3.73,5.58-4.94,9.38-1.21,3.81-1.81,8.08-1.81,12.83s.6,9.11,1.81,12.97c1.21,3.87,2.91,7.07,5.11,9.61,2.2,2.55,4.73,4.45,7.58,5.71,2.85,1.26,5.98,1.89,9.38,1.89,4.36,0,8.37-1.09,12.02-3.27,3.65-2.18,6.56-5.55,8.72-10.1,2.16-4.55,3.24-10.16,3.24-16.82Z"/>
    </g>
  </g>
</svg>