<?xml version="1.0" encoding="UTF-8"?>
<svg id="_レイヤー_2" data-name="レイヤー 2" xmlns="http://www.w3.org/2000/svg" viewBox="0 0 271.34 245.53">
  <defs>
    <style>
      .cls-1 {
        fill: #838282;
      }

      .cls-2 {
        fill: #fcc800;
      }

      .cls-3 {
        fill: #1d50a2;
      }

      .cls-4 {
        fill: #231815;
      }

      .cls-5 {
        fill: rgba(173, 222, 248, .7);
      }

      .cls-6 {
        fill: #b5b5b6;
      }

      .cls-7 {
        fill: #d48835;
      }

      .cls-8 {
        fill: #6d6b6b;
      }

      .cls-9 {
        fill: #999;
      }
    </style>
  </defs>
  <g id="_レイヤー_1-2" data-name="レイヤー 1">
    <g>
      <g>
        <circle class="cls-2" cx="135.67" cy="201.52" r="38.34" transform="translate(-66.79 67.26) rotate(-22.5)"/>
        <path class="cls-4" d="M135.67,245.53c-24.27,0-44.01-19.75-44.01-44.01s19.74-44.01,44.01-44.01,44.01,19.74,44.01,44.01-19.74,44.01-44.01,44.01ZM135.67,168.84c-18.02,0-32.68,14.66-32.68,32.68s14.66,32.68,32.68,32.68,32.68-14.66,32.68-32.68-14.66-32.68-32.68-32.68Z"/>
      </g>
      <g>
        <g>
          <circle class="cls-2" cx="62.44" cy="186.3" r="38.34"/>
          <path class="cls-4" d="M62.44,230.32c-24.27,0-44.01-19.74-44.01-44.01s19.74-44.01,44.01-44.01,44.01,19.74,44.01,44.01-19.74,44.01-44.01,44.01ZM62.44,153.63c-18.02,0-32.68,14.66-32.68,32.68s14.66,32.68,32.68,32.68,32.68-14.66,32.68-32.68-14.66-32.68-32.68-32.68Z"/>
        </g>
        <g>
          <circle class="cls-2" cx="208.9" cy="186.3" r="38.34"/>
          <path class="cls-4" d="M208.9,230.32c-24.27,0-44.01-19.74-44.01-44.01s19.74-44.01,44.01-44.01,44.01,19.74,44.01,44.01-19.74,44.01-44.01,44.01ZM208.9,153.63c-18.02,0-32.68,14.66-32.68,32.68s14.66,32.68,32.68,32.68,32.68-14.66,32.68-32.68-14.66-32.68-32.68-32.68Z"/>
        </g>
      </g>
      <g>
        <ellipse class="cls-9" cx="135.67" cy="155.95" rx="130" ry="59.3"/>
        <path class="cls-4" d="M135.67,220.92C59.59,220.92,0,192.38,0,155.95s59.59-64.97,135.67-64.97,135.67,28.54,135.67,64.97-59.59,64.97-135.67,64.97ZM135.67,102.32c-67.39,0-124.33,24.56-124.33,53.63s56.94,53.63,124.33,53.63,124.33-24.56,124.33-53.63-56.94-53.63-124.33-53.63Z"/>
      </g>
      <g>
        <g>
          <path class="cls-5" d="M135.67,99.24c50.5,0,91.43,17.18,91.43,38.38,0-49.45-40.93-89.54-91.43-89.54s-91.43,40.09-91.43,89.54c0-21.19,40.93-38.38,91.43-38.38Z"/>
          <path class="cls-4" d="M227.1,143.28c-3.13,0-5.67-2.54-5.67-5.67,0-15.47-35.22-32.71-85.76-32.71s-85.76,17.24-85.76,32.71c0,3.13-2.54,5.67-5.67,5.67s-5.67-2.54-5.67-5.67c0-52.5,43.56-95.21,97.1-95.21s97.1,42.71,97.1,95.21c0,3.13-2.54,5.67-5.67,5.67ZM135.67,93.57c25.16,0,48.9,4.15,66.84,11.68,5.94,2.49,11.07,5.3,15.33,8.34-10.59-34.58-43.42-59.85-82.18-59.85s-71.59,25.27-82.18,59.85c4.26-3.05,9.39-5.85,15.33-8.34,17.95-7.53,41.69-11.68,66.85-11.68Z"/>
        </g>
        <g>
          <g>
            <path class="cls-1" d="M216.91,155.24c6.51-5.28,10.19-11.27,10.19-17.62,0-21.19-40.93-38.38-91.43-38.38s-91.43,17.18-91.43,38.38c0,6.35,3.68,12.35,10.19,17.62,15.21-12.33,45.88-20.75,81.24-20.75s66.03,8.43,81.24,20.75Z"/>
            <path class="cls-4" d="M216.91,160.91c-1.26,0-2.53-.42-3.57-1.27-14.61-11.84-45.09-19.49-77.67-19.49s-63.06,7.65-77.67,19.49c-2.08,1.69-5.06,1.69-7.14,0-8.04-6.52-12.29-14.14-12.29-22.03,0-12.68,10.74-24.17,30.25-32.36,17.95-7.53,41.69-11.68,66.85-11.68s48.9,4.15,66.84,11.68c19.51,8.19,30.25,19.68,30.25,32.36,0,7.89-4.25,15.51-12.29,22.03-1.04.84-2.3,1.27-3.57,1.27ZM135.67,128.82c32.93,0,63.24,7.24,80.84,19.1,2.65-2.8,4.92-6.35,4.92-10.3,0-15.47-35.22-32.71-85.76-32.71s-85.76,17.24-85.76,32.71c0,3.95,2.27,7.5,4.92,10.3,17.61-11.86,47.91-19.1,80.84-19.1Z"/>
          </g>
          <g>
            <path class="cls-8" d="M216.91,155.24c-15.21-12.33-45.88-20.75-81.24-20.75s-66.03,8.43-81.24,20.75c15.21,12.33,45.88,20.75,81.24,20.75s66.03-8.43,81.24-20.75Z"/>
            <path class="cls-4" d="M135.67,181.66c-35.55,0-68.05-8.44-84.81-22.02-1.33-1.08-2.1-2.69-2.1-4.4s.77-3.33,2.1-4.4c16.76-13.58,49.25-22.02,84.81-22.02s68.05,8.44,84.81,22.02c1.33,1.08,2.1,2.69,2.1,4.4s-.77,3.33-2.1,4.4c-16.76,13.58-49.25,22.02-84.81,22.02ZM64.49,155.24c16.1,9.3,42.85,15.08,71.18,15.08s55.08-5.79,71.18-15.08c-16.1-9.3-42.85-15.08-71.18-15.08s-55.08,5.79-71.18,15.08Z"/>
          </g>
        </g>
      </g>
      <g>
        <path class="cls-7" d="M135.67,81.65c-46.78,0-39.07,49.82-34.44,74.73h68.88c4.63-24.91,12.34-74.73-34.44-74.73Z"/>
        <path class="cls-4" d="M101.22,162.05c-2.68,0-5.06-1.91-5.57-4.64-4.5-24.2-7.21-51.21,6.71-67.95,7.44-8.95,18.64-13.48,33.3-13.48s25.87,4.54,33.3,13.48c13.92,16.75,11.2,43.75,6.71,67.95-.57,3.08-3.54,5.11-6.61,4.54-3.08-.57-5.11-3.53-4.54-6.61,2.43-13.08,8.12-43.72-4.28-58.63-5.25-6.32-13.3-9.39-24.58-9.39s-19.33,3.07-24.59,9.39c-12.4,14.91-6.71,45.55-4.28,58.63.57,3.08-1.46,6.04-4.54,6.61-.35.06-.7.1-1.04.1Z"/>
      </g>
      <g>
        <path class="cls-2" d="M148.37,19.22c0-7.49-6.07-13.56-13.56-13.56s-13.55,6.07-13.55,13.56c0,4.91,2.62,9.2,6.53,11.58l-4.16,27.06c0,3.03,5.39,5.49,12.03,5.49s12.03-2.46,12.03-5.49l-5.57-27.24c3.75-2.41,6.24-6.61,6.24-11.4Z"/>
        <path class="cls-4" d="M135.67,69.02c-10.42,0-17.7-4.59-17.7-11.16,0-.29.02-.58.07-.86l3.65-23.75c-3.87-3.59-6.09-8.61-6.09-14.03,0-10.6,8.62-19.22,19.22-19.22s19.22,8.62,19.22,19.22c0,5.19-2.07,10.06-5.67,13.63l4.88,23.88c.08.37.11.75.11,1.14,0,6.57-7.28,11.16-17.7,11.16ZM129.57,56.62c1.12.5,3.22,1.07,6.1,1.07s4.85-.53,6-1.02l-5.09-24.9c-.47-2.29.52-4.64,2.49-5.9,2.28-1.46,3.64-3.94,3.64-6.63,0-4.35-3.54-7.89-7.89-7.89s-7.89,3.54-7.89,7.89c0,2.77,1.42,5.28,3.81,6.73,1.96,1.19,3.01,3.44,2.66,5.71l-3.83,24.95Z"/>
      </g>
      <g>
        <path class="cls-3" d="M92.16,156.65l-5.54,13.36c14.17,3.79,31,5.98,49.05,5.98s34.58-2.16,48.68-5.89l-5.82-13.46h-86.37Z"/>
        <path class="cls-4" d="M135.67,181.66c-17.93,0-35.4-2.14-50.51-6.18-1.58-.42-2.9-1.5-3.62-2.97-.72-1.46-.78-3.17-.15-4.68l5.54-13.36c.88-2.12,2.95-3.5,5.24-3.5h86.37c2.26,0,4.31,1.34,5.2,3.42l5.82,13.46c.66,1.52.62,3.24-.1,4.73-.72,1.48-2.05,2.58-3.65,3-15.03,3.97-32.36,6.08-50.12,6.08ZM94.39,166.06c12.65,2.79,26.78,4.26,41.28,4.26s28.27-1.43,40.8-4.15l-1.66-3.85h-78.86l-1.55,3.75Z"/>
      </g>
      <g>
        <path class="cls-4" d="M122.68,136.56c-.26-2.14-2.19-3.66-4.34-3.4-2.14.26-3.66,2.2-3.4,4.34l2.01,16.62c.24,1.98,1.92,3.43,3.86,3.43.16,0,.31,0,.47-.03,2.14-.26,3.66-2.2,3.4-4.34l-2.01-16.62Z"/>
        <path class="cls-4" d="M152.28,133.16c-2.14-.26-4.08,1.27-4.34,3.4l-2.01,16.62c-.26,2.14,1.26,4.08,3.4,4.34.16.02.32.03.47.03,1.94,0,3.63-1.45,3.86-3.43l2.01-16.62c.26-2.14-1.26-4.08-3.4-4.34Z"/>
      </g>
      <g>
        <circle class="cls-6" cx="117.78" cy="127.98" r="9.34"/>
        <path class="cls-4" d="M117.78,141.21c-7.3,0-13.23-5.94-13.23-13.23s5.94-13.23,13.23-13.23,13.23,5.94,13.23,13.23-5.94,13.23-13.23,13.23ZM117.78,122.54c-3,0-5.44,2.44-5.44,5.44s2.44,5.44,5.44,5.44,5.44-2.44,5.44-5.44-2.44-5.44-5.44-5.44Z"/>
      </g>
      <g>
        <circle class="cls-6" cx="152.84" cy="127.98" r="9.34"/>
        <path class="cls-4" d="M152.84,141.21c-7.3,0-13.23-5.94-13.23-13.23s5.94-13.23,13.23-13.23,13.23,5.94,13.23,13.23-5.94,13.23-13.23,13.23ZM152.84,122.54c-3,0-5.44,2.44-5.44,5.44s2.44,5.44,5.44,5.44,5.44-2.44,5.44-5.44-2.44-5.44-5.44-5.44Z"/>
      </g>
    </g>
  </g>
</svg>