<?xml version="1.0" encoding="UTF-8"?>
<svg id="_レイヤー_2" data-name="レイヤー 2" xmlns="http://www.w3.org/2000/svg" viewBox="0 0 313.9 194.4">
  <defs>
    <style>
      .cls-1 {
        fill: #4c4948;
      }

      .cls-2 {
        fill: #231815;
      }

      .cls-3 {
        fill: #bfc0c0;
      }

      .cls-4 {
        fill: #fff;
      }

      .cls-5 {
        fill: #949495;
      }

      .cls-6 {
        fill: #f5a33b;
      }

      .cls-7 {
        fill: #595452;
      }
    </style>
  </defs>
  <g id="_レイヤー_1-2" data-name="レイヤー 1">
    <g>
      <g>
        <g>
          <path class="cls-4" d="M40.95,52.19c0,9.86,6.93,17.88,16.82,18.25v-36.5c-9.89.37-16.82,8.39-16.82,18.25Z"/>
          <path class="cls-2" d="M57.78,76.1c-.07,0-.14,0-.21,0-12.7-.48-22.28-10.76-22.28-23.91s9.58-23.44,22.28-23.91c1.55-.05,3.04.51,4.15,1.58,1.11,1.07,1.74,2.54,1.74,4.08v36.5c0,1.54-.63,3.01-1.74,4.08-1.06,1.02-2.47,1.59-3.93,1.59ZM52.11,41.41c-3.36,2.16-5.48,6.08-5.48,10.77s2.12,8.61,5.48,10.77v-21.54Z"/>
        </g>
        <g>
          <path class="cls-3" d="M58.48,33.9c-.24,0-.47.03-.7.04v36.5c.24,0,.46.04.7.04,10.45,0,23.74-8.19,23.74-18.28s-13.29-18.28-23.74-18.28Z"/>
          <path class="cls-2" d="M58.48,76.14c-.28,0-.55-.01-.82-.03h-.11c-3.02-.16-5.45-2.65-5.45-5.67v-36.5c0-3.04,2.41-5.55,5.45-5.66h.11c.27-.03.54-.04.82-.04,13.6,0,29.41,10.46,29.41,23.95,0,6.55-3.67,12.78-10.32,17.54-5.62,4.02-12.75,6.41-19.08,6.41ZM63.45,40.3v23.77c6.54-1.82,13.1-6.81,13.1-11.89s-6.54-10.05-13.1-11.88Z"/>
        </g>
      </g>
      <g>
        <polygon class="cls-5" points="155.29 69.05 84.71 53.56 81.11 69.05 123.52 143.22 182.1 143.22 202.37 95.68 205.97 78.96 155.29 69.05"/>
        <path class="cls-2" d="M182.1,148.89h-58.58c-2.03,0-3.91-1.09-4.92-2.85l-42.41-74.17c-.71-1.24-.92-2.7-.6-4.1l3.6-15.49c.7-3.02,3.71-4.92,6.74-4.26l70.52,15.48,50.62,9.9c3.07.6,5.08,3.58,4.47,6.65-.6,3.07-3.57,5.07-6.65,4.48l-50.68-9.92s-.08-.02-.13-.03l-65.12-14.29-1.83,7.87,39.68,69.38h51.54l18.8-44.09c1.23-2.88,4.55-4.22,7.44-2.99,2.88,1.23,4.22,4.56,2.99,7.44l-20.26,47.54c-.89,2.09-2.94,3.45-5.21,3.45Z"/>
      </g>
      <g>
        <path class="cls-6" d="M281.5,40.46c8.45-3.31,16.54,8.62,9.93,14.49l-74.44,59.55-33.79-36.61s89.86-34.13,98.3-37.44Z"/>
        <path class="cls-2" d="M216.99,120.17c-1.53,0-3.05-.62-4.17-1.82l-33.79-36.61c-1.28-1.38-1.78-3.31-1.35-5.14.43-1.83,1.75-3.33,3.51-4,.9-.34,89.92-34.16,98.25-37.42,6.54-2.56,13.86.14,17.8,6.56,3.71,6.05,2.89,13.06-2.04,17.44-.07.06-.15.13-.22.19l-74.44,59.55c-1.04.83-2.29,1.24-3.54,1.24ZM193.06,80.22l24.51,26.56,70.16-56.13c.93-.92.2-2.38-.17-2.98-.6-.97-2.21-2.63-4-1.93-7,2.74-68.33,26.05-90.51,34.48ZM291.43,54.95h0,0Z"/>
      </g>
      <g>
        <path class="cls-7" d="M160.85,58.35l26.44,7.71,43.09-26.68c18.76-12.82,31.09,9.09,31.09,9.09l-71.27,37.08-38.56-9.18,9.21-18.02Z"/>
        <path class="cls-2" d="M190.2,91.22c-.44,0-.88-.05-1.31-.15l-38.56-9.18c-1.69-.4-3.11-1.56-3.83-3.14-.73-1.58-.69-3.41.1-4.96l9.21-18.02c1.24-2.42,4.03-3.62,6.63-2.86l24.02,7,40.84-25.28c6.54-4.43,13.21-5.9,19.84-4.35,12.06,2.81,18.99,14.9,19.28,15.41.75,1.34.93,2.93.5,4.4-.44,1.47-1.46,2.7-2.82,3.41l-71.27,37.08c-.81.42-1.71.64-2.62.64ZM159.97,72.53l29.49,7.02,63.43-33c-2.08-2.18-4.96-4.45-8.38-5.23-3.48-.8-7.06.1-10.94,2.75-.07.05-.14.09-.21.14l-43.09,26.68c-1.37.85-3.03,1.07-4.57.62l-21.94-6.4-3.79,7.42Z"/>
      </g>
      <g>
        <path class="cls-1" d="M54.18,91.72c-26.79,0-48.51,21.72-48.51,48.51s21.72,48.51,48.51,48.51,48.51-21.72,48.51-48.51-21.72-48.51-48.51-48.51ZM54.18,168.08c-15.38,0-27.85-12.47-27.85-27.85s12.47-27.85,27.85-27.85,27.85,12.47,27.85,27.85-12.47,27.85-27.85,27.85Z"/>
        <path class="cls-2" d="M54.18,194.4c-29.87,0-54.18-24.3-54.18-54.18s24.3-54.18,54.18-54.18,54.18,24.3,54.18,54.18-24.3,54.18-54.18,54.18ZM54.18,97.39c-23.62,0-42.84,19.22-42.84,42.84s19.22,42.84,42.84,42.84,42.84-19.22,42.84-42.84-19.22-42.84-42.84-42.84ZM54.18,173.75c-18.49,0-33.52-15.04-33.52-33.52s15.04-33.52,33.52-33.52,33.52,15.04,33.52,33.52-15.04,33.52-33.52,33.52ZM54.18,118.04c-12.23,0-22.19,9.95-22.19,22.19s9.95,22.19,22.19,22.19,22.19-9.95,22.19-22.19-9.95-22.19-22.19-22.19Z"/>
      </g>
      <g>
        <path class="cls-1" d="M247.63,91.72c-26.79,0-48.51,21.72-48.51,48.51s21.72,48.51,48.51,48.51,48.51-21.72,48.51-48.51-21.72-48.51-48.51-48.51ZM247.63,168.08c-15.38,0-27.85-12.47-27.85-27.85s12.47-27.85,27.85-27.85,27.85,12.47,27.85,27.85-12.47,27.85-27.85,27.85Z"/>
        <path class="cls-2" d="M247.63,194.4c-29.87,0-54.18-24.3-54.18-54.18s24.3-54.18,54.18-54.18,54.18,24.3,54.18,54.18-24.3,54.18-54.18,54.18ZM247.63,97.39c-23.62,0-42.84,19.22-42.84,42.84s19.22,42.84,42.84,42.84,42.84-19.22,42.84-42.84-19.22-42.84-42.84-42.84ZM247.63,173.75c-18.49,0-33.52-15.04-33.52-33.52s15.04-33.52,33.52-33.52,33.52,15.04,33.52,33.52-15.04,33.52-33.52,33.52ZM247.63,118.04c-12.23,0-22.19,9.95-22.19,22.19s9.95,22.19,22.19,22.19,22.19-9.95,22.19-22.19-9.95-22.19-22.19-22.19Z"/>
      </g>
      <g>
        <circle class="cls-7" cx="136.25" cy="116.34" r="15.98" transform="translate(-34.15 60.99) rotate(-22.5)"/>
        <path class="cls-2" d="M136.25,136.57c-11.15,0-20.23-9.07-20.23-20.23s9.07-20.23,20.23-20.23,20.23,9.07,20.23,20.23-9.07,20.23-20.23,20.23ZM136.25,104.61c-6.46,0-11.72,5.26-11.72,11.72s5.26,11.72,11.72,11.72,11.72-5.26,11.72-11.72-5.26-11.72-11.72-11.72Z"/>
      </g>
      <g>
        <path class="cls-3" d="M128.92,139.97l173.14-20.84c5.31-1.23,9.82,27.07,1.85,28.7-7.97,1.63-172.94,9.4-172.94,9.4-10.83,2.66-10.94-16.88-2.06-17.26Z"/>
        <path class="cls-2" d="M129.04,163.15c-3.46,0-6.56-1.42-8.81-4.09-3.61-4.3-4.41-11.54-1.91-17.22,1.95-4.44,5.72-7.23,10.1-7.52l172.76-20.79c2.54-.44,5.07.5,7.01,2.62,4.87,5.31,7.29,21.03,4.55,29.52-1.86,5.73-5.62,7.3-7.69,7.73-8.09,1.66-154.24,8.58-173.33,9.48-.91.18-1.81.28-2.69.28ZM300.48,125.03l-170.88,20.56c-.14.02-.29.03-.43.04h-.02c-.16.13-.87,1.19-.94,3.08-.06,1.86.55,2.95.77,3.12,0-.01.23,0,.65-.1.36-.09.72-.14,1.08-.16,63.58-2.99,159.32-7.79,171.18-9.17.46-1.23.96-4.24.49-8.96-.39-3.83-1.23-6.78-1.9-8.41ZM128.92,139.97h0,0Z"/>
      </g>
      <g>
        <path class="cls-6" d="M106.75,84.44c-12.62.4-12.76-26.2-8.08-33.66,12.57-20.66,67.48-2.37,76.82,8.93,7.54,9.13-1.07,17.31-5.29,18.84-4.21,1.53-50.85,5.49-63.46,5.88Z"/>
        <path class="cls-2" d="M106.46,90.12c-5.14,0-9.53-2.73-12.4-7.74-5.54-9.66-4.72-27.41-.19-34.61,2.93-4.82,9.44-10.87,23.52-11.88,22.24-1.6,54.06,10.03,62.48,20.22,4.88,5.91,4.73,11.51,3.73,15.15-1.68,6.17-7.03,11.02-11.45,12.63-5.7,2.07-54.94,5.9-65.22,6.22-.15,0-.31,0-.46,0ZM106.57,78.78l.18,5.67-.18-5.67c12.85-.4,56.82-4.22,61.77-5.57,1.18-.47,3.68-2.56,4.32-4.92.27-1,.41-2.6-1.54-4.96-5.12-6.2-32.86-17.58-52.92-16.13-7.44.54-12.38,2.74-14.69,6.54-2.37,3.77-3.06,17.01.39,23.01,1.19,2.08,2.15,2.05,2.67,2.04Z"/>
      </g>
      <path class="cls-2" d="M54.18,145.9c-.59,0-1.19-.09-1.78-.29-2.97-.98-4.58-4.19-3.6-7.16L90.27,13.22c.77-2.32,2.94-3.89,5.38-3.89h33.45c3.13,0,5.67,2.54,5.67,5.67s-2.54,5.67-5.67,5.67h-29.35l-40.19,121.33c-.79,2.38-3,3.89-5.38,3.89Z"/>
      <g>
        <path class="cls-1" d="M141.94,23.68h-16.98c-4.95,0-9-4.05-9-9h0c0-4.95,4.05-9,9-9h16.98c4.95,0,9,4.05,9,9h0c0,4.95-4.05,9-9,9Z"/>
        <path class="cls-2" d="M141.94,29.35h-16.98c-8.09,0-14.67-6.58-14.67-14.67S116.87,0,124.96,0h16.98c8.09,0,14.67,6.58,14.67,14.67s-6.58,14.67-14.67,14.67ZM124.96,11.34c-1.81,0-3.33,1.53-3.33,3.34s1.53,3.34,3.33,3.34h16.98c1.81,0,3.34-1.53,3.34-3.34s-1.53-3.34-3.34-3.34h-16.98Z"/>
      </g>
    </g>
  </g>
</svg>