<?xml version="1.0" encoding="UTF-8"?>
<svg id="_レイヤー_2" data-name="レイヤー 2" xmlns="http://www.w3.org/2000/svg" viewBox="0 0 307.74 177.32">
  <defs>
    <style>
      .cls-1 {
        fill: #eab300;
      }

      .cls-2 {
        fill: #65615f;
      }

      .cls-3 {
        fill: #bae3f9;
      }

      .cls-4 {
        fill: #231815;
      }

      .cls-5 {
        fill: #bfc0c0;
      }

      .cls-6 {
        fill: #949495;
      }

      .cls-7 {
        fill: #fcc80e;
      }
    </style>
  </defs>
  <g id="_レイヤー_1-2" data-name="レイヤー 1">
    <g>
      <g>
        <path class="cls-6" d="M166.02,94.82h-11.56v-46.18c0-13.73-10.34-14.43-12.41-14.43v-11.56c11.54,0,23.96,8.13,23.96,25.98v46.18Z"/>
        <path class="cls-4" d="M166.02,99.07h-11.56c-2.35,0-4.25-1.9-4.25-4.25v-46.18c0-8.85-5.11-10.17-8.15-10.17-2.35,0-4.25-1.9-4.25-4.25v-11.56c0-2.35,1.9-4.25,4.25-4.25,7.27,0,14.1,2.64,19.22,7.45,4.1,3.85,9,10.92,9,22.79v46.18c0,2.35-1.9,4.25-4.25,4.25ZM158.71,90.57h3.05v-41.93c0-12.83-7.23-19.6-15.46-21.3v3.17c1.57.4,3.35,1.08,5.08,2.23,3.34,2.22,7.32,6.78,7.32,15.9v41.93Z"/>
      </g>
      <g>
        <g>
          <polygon class="cls-7" points="266.54 73.74 266.54 96.91 178.88 96.91 178.88 70.21 142.31 70.21 124.16 132.23 296.29 132.74 296.29 73.74 266.54 73.74"/>
          <path class="cls-4" d="M296.29,138.4h-.02l-172.13-.5c-1.78,0-3.46-.85-4.53-2.28-1.07-1.43-1.4-3.27-.9-4.99l18.15-62.02c.71-2.42,2.92-4.08,5.44-4.08h36.57c3.13,0,5.67,2.54,5.67,5.67v21.03h76.32v-17.5c0-3.13,2.54-5.67,5.67-5.67h29.75c3.13,0,5.67,2.54,5.67,5.67v59c0,1.51-.6,2.95-1.67,4.01-1.06,1.06-2.5,1.65-4,1.65ZM131.72,126.58l158.9.47v-47.64h-18.41v17.5c0,3.13-2.54,5.67-5.67,5.67h-87.66c-3.13,0-5.67-2.54-5.67-5.67v-21.03h-26.65l-14.84,50.7Z"/>
        </g>
        <g>
          <polygon class="cls-2" points="266.54 96.91 266.54 73.74 266.54 5.67 206.11 5.67 178.88 70.21 178.88 96.91 266.54 96.91"/>
          <path class="cls-4" d="M266.54,102.58h-87.66c-3.13,0-5.67-2.54-5.67-5.67v-26.7c0-.76.15-1.51.45-2.2L200.88,3.46c.89-2.1,2.94-3.46,5.22-3.46h60.43c3.13,0,5.67,2.54,5.67,5.67v91.24c0,3.13-2.54,5.67-5.67,5.67ZM184.55,91.24h76.32V11.34h-51l-25.32,60.02v19.88Z"/>
        </g>
      </g>
      <g>
        <path class="cls-7" d="M79.07,138.81c-2.09,0-4.17-.8-5.77-2.39-3.19-3.19-3.19-8.35,0-11.54l36.94-36.28c1.53-1.53,3.6-2.39,5.77-2.39h39.4c4.5,0,8.16,3.65,8.16,8.16s-3.65,8.16-8.16,8.16h-36.02l-34.55,33.89c-1.59,1.59-3.68,2.39-5.77,2.39Z"/>
        <path class="cls-4" d="M79.07,144.48c-3.69,0-7.16-1.44-9.78-4.05-5.39-5.39-5.39-14.16,0-19.55l36.97-36.32c2.58-2.58,6.05-4.01,9.74-4.01h39.4c7.62,0,13.83,6.2,13.83,13.83s-6.2,13.83-13.83,13.83h-33.71l-32.89,32.27c-2.57,2.57-6.04,4.01-9.74,4.01ZM116,91.88c-.66,0-1.29.26-1.76.73l-36.97,36.31c-.93.93-.93,2.51.04,3.48.63.63,1.37.73,1.76.73s1.12-.09,1.76-.73l34.59-33.93c1.06-1.04,2.49-1.62,3.97-1.62h36.02c1.37,0,2.49-1.12,2.49-2.49s-1.12-2.49-2.49-2.49h-39.4Z"/>
      </g>
      <g>
        <rect class="cls-6" x="109.83" y="116.5" width="192.24" height="55.15" rx="27.58" ry="27.58"/>
        <path class="cls-4" d="M274.5,177.32h-137.09c-18.33,0-33.25-14.91-33.25-33.24s14.91-33.24,33.25-33.24h137.09c18.33,0,33.24,14.91,33.24,33.24s-14.91,33.24-33.24,33.24ZM137.41,122.17c-12.08,0-21.91,9.83-21.91,21.91s9.83,21.91,21.91,21.91h137.09c12.08,0,21.91-9.83,21.91-21.91s-9.83-21.91-21.91-21.91h-137.09Z"/>
      </g>
      <g>
        <circle class="cls-5" cx="137.89" cy="143.92" r="14.2" transform="translate(-31.04 249.7) rotate(-78.28)"/>
        <path class="cls-4" d="M137.89,162.38c-10.18,0-18.46-8.28-18.46-18.46s8.28-18.46,18.46-18.46,18.46,8.28,18.46,18.46-8.28,18.46-18.46,18.46ZM137.89,133.97c-5.49,0-9.95,4.46-9.95,9.95s4.46,9.95,9.95,9.95,9.95-4.46,9.95-9.95-4.46-9.95-9.95-9.95Z"/>
      </g>
      <g>
        <circle class="cls-5" cx="173.78" cy="147.77" r="10.36" transform="translate(0 295.55) rotate(-80.75)"/>
        <path class="cls-4" d="M173.78,162.38c-8.05,0-14.61-6.55-14.61-14.61s6.55-14.61,14.61-14.61,14.61,6.55,14.61,14.61-6.55,14.61-14.61,14.61ZM173.78,141.67c-3.37,0-6.1,2.74-6.1,6.1s2.74,6.1,6.1,6.1,6.1-2.74,6.1-6.1-2.74-6.1-6.1-6.1Z"/>
      </g>
      <g>
        <circle class="cls-5" cx="205.86" cy="147.77" r="10.36" transform="translate(3.92 300.86) rotate(-72.84)"/>
        <path class="cls-4" d="M205.86,162.38c-8.05,0-14.61-6.55-14.61-14.61s6.55-14.61,14.61-14.61,14.61,6.55,14.61,14.61-6.55,14.61-14.61,14.61ZM205.86,141.67c-3.37,0-6.1,2.74-6.1,6.1s2.74,6.1,6.1,6.1,6.1-2.74,6.1-6.1-2.74-6.1-6.1-6.1Z"/>
      </g>
      <g>
        <circle class="cls-5" cx="237.93" cy="147.77" r="10.36" transform="translate(42.75 348.65) rotate(-77.67)"/>
        <path class="cls-4" d="M237.93,162.38c-8.05,0-14.61-6.55-14.61-14.61s6.55-14.61,14.61-14.61,14.61,6.55,14.61,14.61-6.55,14.61-14.61,14.61ZM237.93,141.67c-3.37,0-6.1,2.74-6.1,6.1s2.74,6.1,6.1,6.1,6.1-2.74,6.1-6.1-2.74-6.1-6.1-6.1Z"/>
      </g>
      <g>
        <circle class="cls-5" cx="274.2" cy="143.92" r="14.2" transform="translate(-21.46 236.04) rotate(-45)"/>
        <path class="cls-4" d="M274.2,162.38c-10.18,0-18.46-8.28-18.46-18.46s8.28-18.46,18.46-18.46,18.46,8.28,18.46,18.46-8.28,18.46-18.46,18.46ZM274.2,133.97c-5.49,0-9.95,4.46-9.95,9.95s4.46,9.95,9.95,9.95,9.95-4.46,9.95-9.95-4.46-9.95-9.95-9.95Z"/>
      </g>
      <g>
        <polygon class="cls-3" points="250.05 22 217.45 21.74 199.07 67.39 249.6 67.39 250.05 22"/>
        <path class="cls-4" d="M249.6,73.06h-50.53c-1.88,0-3.64-.94-4.7-2.5-1.05-1.56-1.26-3.54-.56-5.29l18.38-45.65c.86-2.15,2.95-3.55,5.26-3.55h.05l32.6.26c1.51.01,2.94.62,4,1.7,1.05,1.07,1.64,2.52,1.62,4.03l-.45,45.39c-.03,3.11-2.56,5.61-5.67,5.61ZM207.47,61.72h36.52l.34-34.09-23.06-.19-13.8,34.28Z"/>
      </g>
      <path class="cls-7" d="M68.05,85.87c37.93,34.93,36.63,84.83,1.84,84.83H18.15l49.9-84.83Z"/>
      <path class="cls-4" d="M98.13,120.53c-4.87-14.07-13.94-27.5-26.24-38.83-1.26-1.16-2.98-1.69-4.67-1.44-1.69.25-3.19,1.26-4.05,2.73L14.9,165.04H5.67c-3.13,0-5.67,2.54-5.67,5.67s2.54,5.67,5.67,5.67h64.22c13.84,0,24.52-7.02,29.29-19.26,3.97-10.16,3.59-23.16-1.05-36.59ZM88.62,152.99c-3.08,7.88-9.55,12.04-18.73,12.04H28.06l41.19-70.02c19.53,20.7,24.72,44.29,19.38,57.97Z"/>
      <g>
        <circle class="cls-1" cx="154.18" cy="94.07" r="11.08"/>
        <path class="cls-4" d="M154.18,110.82c-9.24,0-16.75-7.51-16.75-16.75s7.51-16.75,16.75-16.75,16.75,7.51,16.75,16.75-7.51,16.75-16.75,16.75ZM154.18,88.66c-2.98,0-5.41,2.43-5.41,5.41s2.43,5.41,5.41,5.41,5.41-2.43,5.41-5.41-2.43-5.41-5.41-5.41Z"/>
      </g>
    </g>
  </g>
</svg>