<?xml version="1.0" encoding="UTF-8"?>
<svg id="_レイヤー_2" data-name="レイヤー 2" xmlns="http://www.w3.org/2000/svg" viewBox="0 0 346.55 204.46">
  <defs>
    <style>
      .cls-1 {
        fill: #38a1db;
      }

      .cls-2 {
        fill: #4c4948;
      }

      .cls-3 {
        fill: #bae3f9;
      }

      .cls-4 {
        fill: #231815;
      }

      .cls-5 {
        fill: #c9caca;
      }

      .cls-6 {
        fill: #fff;
      }
    </style>
  </defs>
  <g id="_レイヤー_1-2" data-name="レイヤー 1">
    <g>
      <g>
        <rect class="cls-1" x="104.19" y="11.88" width="175.61" height="130.28"/>
        <path class="cls-4" d="M279.8,147.83H104.19c-3.13,0-5.67-2.54-5.67-5.67V11.88c0-3.13,2.54-5.67,5.67-5.67h175.61c3.13,0,5.67,2.54,5.67,5.67v130.28c0,3.13-2.54,5.67-5.67,5.67ZM109.86,136.5h164.27V17.55H109.86v118.94Z"/>
      </g>
      <g>
        <rect class="cls-1" x="104.19" y="5.67" width="19.46" height="136.5"/>
        <path class="cls-4" d="M123.66,147.83h-19.46c-3.13,0-5.67-2.54-5.67-5.67V5.67c0-3.13,2.54-5.67,5.67-5.67h19.46c3.13,0,5.67,2.54,5.67,5.67v136.5c0,3.13-2.54,5.67-5.67,5.67ZM109.86,136.5h8.12V11.34h-8.12v125.16Z"/>
      </g>
      <g>
        <polygon class="cls-1" points="299.41 150.11 279.95 142.17 279.95 5.67 299.41 5.67 340.88 118.4 299.41 150.11"/>
        <path class="cls-4" d="M299.41,155.78c-.72,0-1.45-.14-2.14-.42l-19.46-7.95c-2.13-.87-3.53-2.95-3.53-5.25V5.67c0-3.13,2.54-5.67,5.67-5.67h19.46c2.38,0,4.5,1.48,5.32,3.71l41.47,112.73c.86,2.33.1,4.95-1.88,6.46l-41.47,31.71c-1.01.77-2.22,1.17-3.44,1.17ZM285.62,138.36l12.93,5.28,35.57-27.2-38.66-105.09h-9.84v127.02Z"/>
      </g>
      <path class="cls-4" d="M321.69,135.17c-1.57,0-3.08-.87-3.82-2.37l-22.67-45.94h-14.87c-2.35,0-4.25-1.9-4.25-4.25s1.9-4.25,4.25-4.25h17.51c1.62,0,3.1.92,3.81,2.37l23.84,48.31c1.04,2.11.17,4.66-1.93,5.7-.6.3-1.25.44-1.88.44Z"/>
      <g>
        <g>
          <g>
            <rect class="cls-2" x="104.19" y="142.17" width="175.97" height="39.18"/>
            <path d="M280.16,187.02H104.19c-3.13,0-5.67-2.54-5.67-5.67v-39.18c0-3.13,2.54-5.67,5.67-5.67h175.97c3.13,0,5.67,2.54,5.67,5.67v39.18c0,3.13-2.54,5.67-5.67,5.67ZM109.86,175.68h164.63v-27.84H109.86v27.84Z"/>
          </g>
          <g>
            <path class="cls-6" d="M104.19,42.35l-70.19.72s-3.91,5.91-8.64,14.71l-16.47,53.76v69.81h95.29V42.35Z"/>
            <path d="M104.19,187.02H8.9c-3.13,0-5.67-2.54-5.67-5.67v-69.81c0-.56.08-1.12.25-1.66l16.47-53.76c.11-.35.25-.7.43-1.02,4.8-8.93,8.74-14.91,8.9-15.16,1.04-1.57,2.79-2.52,4.67-2.54l70.19-.72c1.53-.03,2.97.58,4.05,1.64,1.08,1.06,1.68,2.52,1.68,4.03v139c0,3.13-2.54,5.67-5.67,5.67ZM14.57,175.68h83.95V48.08l-61.38.63c-1.48,2.39-3.86,6.36-6.52,11.27l-16.06,52.41v63.29Z"/>
          </g>
        </g>
        <g>
          <path class="cls-3" d="M34.26,57.78h-10.41c-7.26,13.53-16.47,33.91-16.47,50.4v3.36h22.6l4.28-53.76Z"/>
          <path d="M29.98,115.79H7.38c-2.35,0-4.25-1.9-4.25-4.25v-3.36c0-17.19,9.23-37.99,16.97-52.41.74-1.38,2.18-2.24,3.75-2.24h10.41c1.19,0,2.32.5,3.12,1.37.81.87,1.21,2.04,1.12,3.22l-4.28,53.76c-.18,2.21-2.02,3.91-4.24,3.91ZM11.64,107.29h14.41l3.6-45.25h-3.25c-6.86,13.13-14.46,30.82-14.76,45.25Z"/>
        </g>
      </g>
      <g>
        <polygon class="cls-3" points="48.27 58.32 43.79 111.54 80.04 111.46 80.04 58.28 48.27 58.32"/>
        <path d="M43.79,115.79c-1.19,0-2.32-.5-3.13-1.37-.81-.88-1.21-2.05-1.11-3.24l4.48-53.21c.19-2.2,2.02-3.89,4.23-3.89l31.78-.04h0c1.13,0,2.21.45,3,1.24.8.8,1.25,1.88,1.25,3.01v53.18c0,2.34-1.9,4.25-4.24,4.25l-36.26.08h0ZM52.18,62.57l-3.76,44.71,27.38-.06v-44.68l-23.62.03Z"/>
      </g>
      <g>
        <path class="cls-6" d="M8.9,147.55h15.92c6.49-9.63,2.71-23.13,2.71-23.13H8.9v23.13Z"/>
        <path d="M24.82,153.22h-15.92c-3.13,0-5.67-2.54-5.67-5.67v-23.13c0-3.13,2.54-5.67,5.67-5.67h18.63c2.54,0,4.77,1.69,5.46,4.14.18.66,4.4,16.16-3.47,27.83-1.05,1.56-2.82,2.5-4.7,2.5ZM14.57,141.88h6.89c1.68-4.01,1.66-8.58,1.32-11.79h-8.21v11.79Z"/>
      </g>
      <g>
        <polygon class="cls-2" points="38.21 162.1 32.23 188.08 8.5 188.08 5.67 161.7 38.21 162.1"/>
        <path d="M32.23,193.75H8.5c-2.9,0-5.33-2.18-5.64-5.06L.03,162.3c-.17-1.61.35-3.22,1.44-4.42,1.09-1.2,2.65-1.85,4.26-1.85l32.55.4c1.72.02,3.33.82,4.39,2.17,1.06,1.35,1.45,3.1,1.07,4.78l-5.99,25.98c-.59,2.57-2.88,4.4-5.52,4.4ZM13.6,182.41h14.12l3.39-14.73-19.12-.24,1.61,14.97Z"/>
      </g>
      <g>
        <circle class="cls-2" cx="75.38" cy="174.59" r="23.03"/>
        <path class="cls-4" d="M75.38,203.29c-15.82,0-28.69-12.87-28.69-28.7s12.87-28.69,28.69-28.69,28.7,12.87,28.7,28.69-12.87,28.7-28.7,28.7ZM75.38,157.24c-9.57,0-17.36,7.79-17.36,17.36s7.79,17.36,17.36,17.36,17.36-7.79,17.36-17.36-7.79-17.36-17.36-17.36Z"/>
      </g>
      <g>
        <path class="cls-5" d="M79.19,174.59c0,2.11-1.71,3.81-3.81,3.81s-3.81-1.71-3.81-3.81,1.71-3.81,3.81-3.81,3.81,1.71,3.81,3.81Z"/>
        <path class="cls-5" d="M75.38,184.08c-5.23,0-9.48-4.25-9.48-9.48s4.25-9.48,9.48-9.48,9.48,4.25,9.48,9.48-4.25,9.48-9.48,9.48ZM75.38,172.74c-1.02,0-1.85.83-1.85,1.85s.83,1.85,1.85,1.85,1.85-.83,1.85-1.85-.83-1.85-1.85-1.85Z"/>
      </g>
      <g>
        <circle class="cls-2" cx="237.96" cy="175.77" r="23.03"/>
        <path class="cls-4" d="M237.96,204.46c-15.82,0-28.7-12.87-28.7-28.69s12.87-28.69,28.7-28.69,28.7,12.87,28.7,28.69-12.87,28.69-28.7,28.69ZM237.96,158.41c-9.57,0-17.36,7.79-17.36,17.36s7.79,17.36,17.36,17.36,17.36-7.79,17.36-17.36-7.79-17.36-17.36-17.36Z"/>
      </g>
      <g>
        <circle class="cls-5" cx="237.96" cy="175.77" r="3.81"/>
        <path class="cls-5" d="M237.96,185.25c-5.23,0-9.48-4.25-9.48-9.48s4.25-9.48,9.48-9.48,9.48,4.25,9.48,9.48-4.25,9.48-9.48,9.48ZM237.96,173.91c-1.02,0-1.85.83-1.85,1.85s.83,1.85,1.85,1.85,1.85-.83,1.85-1.85-.83-1.85-1.85-1.85Z"/>
      </g>
    </g>
  </g>
</svg>