<?xml version="1.0" encoding="UTF-8"?>
<svg id="_レイヤー_2" data-name="レイヤー 2" xmlns="http://www.w3.org/2000/svg" viewBox="0 0 314.23 193.33">
  <defs>
    <style>
      .cls-1 {
        fill: #65615f;
      }

      .cls-2 {
        fill: #4c4948;
      }

      .cls-3 {
        fill: #bae3f9;
      }

      .cls-4 {
        fill: #231815;
      }

      .cls-5 {
        fill: #c9caca;
      }

      .cls-6 {
        fill: #fff;
      }

      .cls-7 {
        fill: #f8f7f0;
      }

      .cls-8 {
        fill: #74c6be;
      }
    </style>
  </defs>
  <g id="_レイヤー_1-2" data-name="レイヤー 1">
    <g>
      <g>
        <g>
          <g>
            <rect class="cls-8" x="104.19" y="145.27" width="175.97" height="24.94"/>
            <path d="M280.16,175.88H104.19c-3.13,0-5.67-2.54-5.67-5.67v-24.94c0-3.13,2.54-5.67,5.67-5.67h175.97c3.13,0,5.67,2.54,5.67,5.67v24.94c0,3.13-2.54,5.67-5.67,5.67ZM109.86,164.54h164.63v-13.6H109.86v13.6Z"/>
          </g>
          <g>
            <path class="cls-8" d="M104.19,31.22l-70.19.72s-3.91,5.91-8.64,14.71l-16.47,53.76v69.81h95.29V31.22Z"/>
            <path d="M104.19,175.88H8.9c-3.13,0-5.67-2.54-5.67-5.67v-69.81c0-.56.08-1.12.25-1.66l16.47-53.76c.11-.35.25-.7.43-1.02,4.8-8.93,8.74-14.91,8.91-15.16,1.04-1.57,2.79-2.52,4.67-2.54l70.19-.72s.04,0,.06,0c1.49,0,2.93.59,3.99,1.64,1.08,1.07,1.68,2.52,1.68,4.03v139c0,3.13-2.54,5.67-5.67,5.67ZM14.57,164.54h83.95V36.94l-61.38.63c-1.48,2.39-3.86,6.36-6.52,11.27l-16.05,52.41v63.29Z"/>
          </g>
        </g>
        <g>
          <path class="cls-3" d="M34.26,46.64h-10.41c-7.26,13.53-16.47,33.91-16.47,50.4v3.36h22.6l4.28-53.76Z"/>
          <path d="M29.98,104.65H7.38c-2.35,0-4.25-1.9-4.25-4.25v-3.36c0-17.2,9.23-37.99,16.97-52.41.74-1.38,2.18-2.24,3.75-2.24h10.41c1.19,0,2.32.5,3.12,1.37.8.87,1.21,2.04,1.11,3.22l-4.28,53.76c-.18,2.21-2.02,3.91-4.24,3.91ZM11.64,96.15h14.41l3.6-45.25h-3.25c-6.86,13.12-14.46,30.81-14.76,45.25Z"/>
        </g>
      </g>
      <g>
        <polygon class="cls-3" points="48.27 47.19 43.79 100.4 80.04 100.33 80.04 47.14 48.27 47.19"/>
        <path d="M43.79,104.65c-1.19,0-2.32-.5-3.13-1.37-.81-.88-1.21-2.05-1.11-3.24l4.48-53.21c.19-2.2,2.02-3.89,4.23-3.89l31.78-.04h0c1.13,0,2.21.45,3,1.24.8.8,1.25,1.88,1.25,3.01v53.18c0,2.34-1.9,4.25-4.24,4.25l-36.26.08h0ZM52.18,51.44l-3.76,44.71,27.38-.06v-44.68l-23.62.03Z"/>
      </g>
      <g>
        <path class="cls-6" d="M8.9,136.41h15.92c6.49-9.63,2.71-23.13,2.71-23.13H8.9v23.13Z"/>
        <path d="M24.82,142.08h-15.92c-3.13,0-5.67-2.54-5.67-5.67v-23.13c0-3.13,2.54-5.67,5.67-5.67h18.63c2.54,0,4.77,1.69,5.46,4.14.18.65,4.4,16.16-3.47,27.83-1.05,1.56-2.82,2.5-4.7,2.5ZM14.57,130.75h6.89c1.68-4.01,1.66-8.58,1.32-11.79h-8.21v11.79Z"/>
      </g>
      <g>
        <polygon class="cls-2" points="38.21 150.96 32.23 176.95 8.5 176.95 5.67 150.56 38.21 150.96"/>
        <path d="M32.23,182.62H8.5c-2.9,0-5.33-2.18-5.64-5.06L.03,151.17c-.17-1.61.35-3.22,1.44-4.42,1.08-1.18,2.6-1.85,4.19-1.85h.07l32.55.4c1.71.02,3.33.82,4.39,2.17,1.06,1.35,1.45,3.1,1.07,4.78l-5.99,25.98c-.59,2.57-2.88,4.4-5.52,4.4ZM13.6,171.28h14.12l3.39-14.73-19.12-.24,1.61,14.97Z"/>
      </g>
      <g>
        <circle class="cls-2" cx="75.38" cy="163.46" r="23.03" transform="translate(-98.04 211.68) rotate(-80.78)"/>
        <path class="cls-4" d="M75.38,192.15c-15.82,0-28.7-12.87-28.7-28.7s12.87-28.69,28.7-28.69,28.69,12.87,28.69,28.69-12.87,28.7-28.69,28.7ZM75.38,146.1c-9.57,0-17.36,7.79-17.36,17.36s7.79,17.36,17.36,17.36,17.36-7.79,17.36-17.36-7.79-17.36-17.36-17.36Z"/>
      </g>
      <g>
        <path class="cls-5" d="M79.19,163.46c0,2.11-1.71,3.81-3.81,3.81s-3.81-1.71-3.81-3.81,1.71-3.81,3.81-3.81,3.81,1.71,3.81,3.81Z"/>
        <path class="cls-5" d="M75.38,172.94c-5.23,0-9.48-4.25-9.48-9.48s4.25-9.48,9.48-9.48,9.48,4.25,9.48,9.48-4.25,9.48-9.48,9.48ZM75.38,161.6c-1.02,0-1.85.83-1.85,1.85s.83,1.85,1.85,1.85,1.85-.83,1.85-1.85-.83-1.85-1.85-1.85Z"/>
      </g>
      <g>
        <circle class="cls-2" cx="237.96" cy="164.63" r="23.03"/>
        <path class="cls-4" d="M237.96,193.33c-15.82,0-28.69-12.87-28.69-28.69s12.87-28.7,28.69-28.7,28.69,12.87,28.69,28.7-12.87,28.69-28.69,28.69ZM237.96,147.27c-9.57,0-17.36,7.79-17.36,17.36s7.79,17.36,17.36,17.36,17.36-7.79,17.36-17.36-7.79-17.36-17.36-17.36Z"/>
      </g>
      <g>
        <path class="cls-5" d="M241.77,164.63c0,2.11-1.71,3.81-3.81,3.81s-3.81-1.71-3.81-3.81,1.71-3.81,3.81-3.81,3.81,1.71,3.81,3.81Z"/>
        <path class="cls-5" d="M237.96,174.11c-5.23,0-9.48-4.25-9.48-9.48s4.25-9.48,9.48-9.48,9.48,4.25,9.48,9.48-4.25,9.48-9.48,9.48ZM237.96,162.78c-1.02,0-1.85.83-1.85,1.85s.83,1.85,1.85,1.85,1.85-.83,1.85-1.85-.83-1.85-1.85-1.85Z"/>
      </g>
      <g>
        <polygon class="cls-7" points="260.65 8.99 211.79 5.67 161.48 19.92 105.74 52.88 127.87 131 192.61 129.82 242.93 115.56 282.78 87.11 260.65 8.99"/>
        <path class="cls-4" d="M127.87,136.67c-2.53,0-4.76-1.68-5.45-4.12l-22.13-78.12c-.7-2.48.35-5.12,2.57-6.43l55.74-32.96c.42-.25.87-.44,1.34-.57L210.25.21c.63-.18,1.28-.24,1.93-.2l48.86,3.32c2.39.16,4.42,1.81,5.07,4.11l22.13,78.12c.65,2.3-.21,4.77-2.16,6.16l-39.85,28.46c-.53.38-1.12.66-1.75.84l-50.31,14.25c-.47.13-.96.2-1.44.21l-64.75,1.18s-.07,0-.1,0ZM112.38,55.54l19.75,69.71,59.64-1.09,48.66-13.79,35.8-25.56-19.95-70.44-43.89-2.98-48.66,13.79-51.35,30.36Z"/>
      </g>
      <g>
        <path class="cls-4" d="M179.55,68.12c-.64-2.26-2.99-3.57-5.25-2.93-2.26.64-3.57,2.99-2.93,5.25l16.88,59.59c.53,1.87,2.23,3.09,4.09,3.09.38,0,.77-.05,1.16-.16,2.26-.64,3.57-2.99,2.93-5.25l-16.88-59.59Z"/>
        <path class="cls-4" d="M246.75,113.46l-19.92-70.32c-.64-2.26-2.99-3.57-5.25-2.93-2.26.64-3.57,2.99-2.93,5.25l19.92,70.32c.53,1.87,2.23,3.09,4.09,3.09.38,0,.77-.05,1.16-.16,2.26-.64,3.57-2.99,2.93-5.25Z"/>
      </g>
      <g>
        <polygon class="cls-8" points="257.02 145.1 276.76 82.14 308.56 82.14 308.56 114.81 280.16 145.27 257.02 145.1"/>
        <path d="M280.16,150.94h-.04l-23.14-.17c-1.8-.01-3.48-.88-4.54-2.33s-1.37-3.32-.83-5.04l19.74-62.96c.74-2.36,2.93-3.97,5.41-3.97h31.8c3.13,0,5.67,2.54,5.67,5.67v32.67c0,1.43-.54,2.82-1.52,3.87l-28.4,30.46c-1.07,1.15-2.57,1.8-4.15,1.8ZM264.72,139.49l12.99.1,25.18-27v-24.77h-21.96l-16.21,51.68Z"/>
      </g>
      <g>
        <g>
          <path class="cls-1" d="M304.24,13.83c0-2.87-2.35-5.22-5.22-5.22h-16.56c-2.87,0-5.22,2.35-5.22,5.22v13.86h27.01v-13.86Z"/>
          <path class="cls-4" d="M304.24,33.35h-27.01c-3.13,0-5.67-2.54-5.67-5.67v-13.86c0-6.01,4.89-10.89,10.89-10.89h16.56c6.01,0,10.89,4.89,10.89,10.89v13.86c0,3.13-2.54,5.67-5.67,5.67ZM282.9,22.02h15.67v-7.74h-15.67v7.74Z"/>
        </g>
        <g>
          <path class="cls-8" d="M277.24,27.69v49.17c0,2.87,2.35,5.22,5.22,5.22h16.56c2.87,0,5.22-2.35,5.22-5.22V27.69h-27.01Z"/>
          <path d="M299.02,87.75h-16.56c-6.01,0-10.89-4.89-10.89-10.89V27.68c0-3.13,2.54-5.67,5.67-5.67h27.01c3.13,0,5.67,2.54,5.67,5.67v49.17c0,6.01-4.89,10.89-10.89,10.89ZM282.9,76.41h15.67v-43.05h-15.67v43.05Z"/>
        </g>
      </g>
    </g>
  </g>
</svg>