<?xml version="1.0" encoding="UTF-8"?>
<svg id="_レイヤー_2" data-name="レイヤー 2" xmlns="http://www.w3.org/2000/svg" viewBox="0 0 311.61 208.1">
  <defs>
    <style>
      .cls-1 {
        fill: #ea5532;
      }

      .cls-2 {
        fill: #4c4948;
      }

      .cls-3 {
        fill: #bae3f9;
      }

      .cls-4 {
        fill: #231815;
      }

      .cls-5 {
        fill: #c9caca;
      }

      .cls-6 {
        fill: #fff;
      }

      .cls-7 {
        fill: #716d6b;
      }
    </style>
  </defs>
  <g id="_レイヤー_1-2" data-name="レイヤー 1">
    <g>
      <g>
        <rect class="cls-1" x="155.34" y="5.67" width="50.67" height="24.46" rx="12.23" ry="12.23"/>
        <path d="M193.78,35.8h-26.21c-9.87,0-17.9-8.03-17.9-17.9S157.7,0,167.57,0h26.21c9.87,0,17.9,8.03,17.9,17.9s-8.03,17.9-17.9,17.9ZM167.57,11.34c-3.62,0-6.56,2.94-6.56,6.56s2.94,6.56,6.56,6.56h26.21c3.62,0,6.56-2.94,6.56-6.56s-2.94-6.56-6.56-6.56h-26.21Z"/>
      </g>
      <g>
        <path class="cls-6" d="M305.94,134.08c0-13.66-7.13-19.01-13.66-21.98-6.53-2.97-21.98-9.5-21.98-9.5l-18.48-58.23s-3.87-14.24-23.68-14.24h-87.34c-14.26,0-25.54,4.75-32.08,16.63l-36.83,60.59-43.96,7.72c-11.29,3.56-17.23,7.72-17.23,21.38v3.66h295.23v-6.04Z"/>
        <rect class="cls-2" x="10.72" y="140.12" width="295.23" height="42.67"/>
      </g>
      <g>
        <path class="cls-6" d="M10.72,132.92h33.86s1.98,23.77-11.35,23.77H10.72v-23.77Z"/>
        <path class="cls-4" d="M33.23,160.95H10.72c-2.35,0-4.25-1.9-4.25-4.25v-23.77c0-2.35,1.9-4.25,4.25-4.25h33.86c2.21,0,4.05,1.7,4.24,3.9.14,1.68,1.17,16.6-5.73,24.1-2.57,2.8-5.98,4.28-9.85,4.28ZM14.97,152.44h18.26c1.51,0,2.61-.47,3.58-1.53,2.72-2.95,3.49-9.27,3.6-13.74H14.97v15.27Z"/>
      </g>
      <g>
        <path class="cls-3" d="M232.53,51.41c-.42-.26-1.73-.77-4.39-.77h-87.34c-10.8,0-12.86,3.76-14.1,6l-.22.39-30.71,50.52h154.56l-17.82-56.14Z"/>
        <path class="cls-4" d="M250.35,113.22H95.79c-2.05,0-3.94-1.1-4.94-2.89-1-1.79-.97-3.97.1-5.72l30.81-50.71c2.42-4.4,6.58-8.92,19.06-8.92h87.33c3.1,0,5.65.55,7.36,1.6,1.16.71,2.03,1.82,2.44,3.12l17.82,56.14c.55,1.72.24,3.6-.83,5.06s-2.77,2.32-4.58,2.32ZM105.87,101.88h136.73l-14.46-45.57h-87.33c-7.45,0-8.42,1.77-9.13,3.06l-.23.41c-.04.07-.07.13-.11.2l-25.47,41.9Z"/>
      </g>
      <path class="cls-4" d="M181,47.85c-2.35,0-4.25,1.9-4.25,4.25v51.72c0,2.35,1.9,4.25,4.25,4.25s4.25-1.9,4.25-4.25v-51.72c0-2.35-1.9-4.25-4.25-4.25Z"/>
      <path d="M305.94,188.46H10.72c-3.13,0-5.67-2.54-5.67-5.67v-46.33c0-16.74,8.11-22.66,21.19-26.79.24-.08.48-.13.73-.18l41.43-7.28,35.43-58.29c7.15-12.91,19.59-19.46,36.98-19.46h87.34c12.22,0,19.44,4.81,23.34,8.85,4.03,4.16,5.46,8.42,5.76,9.41l17.67,55.68c4.62,1.96,14.67,6.25,19.71,8.54,11.43,5.2,16.99,14.07,16.99,27.14v48.71c0,3.13-2.54,5.67-5.67,5.67ZM16.38,177.12h283.89v-43.04c0-10.65-4.97-14.38-10.34-16.82-6.39-2.91-21.69-9.38-21.84-9.44-1.53-.65-2.69-1.93-3.19-3.51l-18.48-58.23c-.02-.08-.05-.15-.07-.23-.29-.96-3.5-10.05-18.21-10.05h-87.34c-13.17,0-22.04,4.48-27.11,13.69-.04.07-.08.14-.12.21l-36.83,60.59c-.85,1.4-2.26,2.36-3.86,2.64l-43.58,7.66c-9.84,3.14-12.91,5.82-12.91,15.87v40.66ZM71.9,107.35h0,0Z"/>
      <g>
        <rect class="cls-7" x="5.67" y="157.83" width="66.84" height="29.6"/>
        <path class="cls-4" d="M72.5,193.1H5.67c-3.13,0-5.67-2.54-5.67-5.67v-29.6c0-3.13,2.54-5.67,5.67-5.67h66.83c3.13,0,5.67,2.54,5.67,5.67v29.6c0,3.13-2.54,5.67-5.67,5.67ZM11.34,181.76h55.5v-18.26H11.34v18.26Z"/>
      </g>
      <g>
        <circle class="cls-2" cx="89.75" cy="174.94" r="27.49"/>
        <path class="cls-4" d="M89.75,208.1c-18.29,0-33.16-14.88-33.16-33.16s14.88-33.16,33.16-33.16,33.16,14.88,33.16,33.16-14.88,33.16-33.16,33.16ZM89.75,153.12c-12.03,0-21.82,9.79-21.82,21.82s9.79,21.82,21.82,21.82,21.82-9.79,21.82-21.82-9.79-21.82-21.82-21.82Z"/>
      </g>
      <g>
        <path class="cls-5" d="M94.31,174.94c0,2.52-2.04,4.55-4.55,4.55s-4.55-2.04-4.55-4.55,2.04-4.55,4.55-4.55,4.55,2.04,4.55,4.55Z"/>
        <path class="cls-5" d="M89.75,186.58c-6.42,0-11.64-5.22-11.64-11.64s5.22-11.64,11.64-11.64,11.64,5.22,11.64,11.64-5.22,11.64-11.64,11.64ZM89.75,172.41c-1.4,0-2.53,1.14-2.53,2.53s1.14,2.53,2.53,2.53,2.53-1.14,2.53-2.53-1.14-2.53-2.53-2.53Z"/>
      </g>
      <g>
        <circle class="cls-2" cx="236.25" cy="174.94" r="27.49"/>
        <path class="cls-4" d="M236.25,208.1c-18.29,0-33.16-14.88-33.16-33.16s14.88-33.16,33.16-33.16,33.16,14.88,33.16,33.16-14.88,33.16-33.16,33.16ZM236.25,153.12c-12.03,0-21.82,9.79-21.82,21.82s9.79,21.82,21.82,21.82,21.82-9.79,21.82-21.82-9.79-21.82-21.82-21.82Z"/>
      </g>
      <g>
        <path class="cls-5" d="M240.8,174.94c0,2.52-2.04,4.55-4.55,4.55s-4.55-2.04-4.55-4.55,2.04-4.55,4.55-4.55,4.55,2.04,4.55,4.55Z"/>
        <path class="cls-5" d="M236.25,186.58c-6.42,0-11.64-5.22-11.64-11.64s5.22-11.64,11.64-11.64,11.64,5.22,11.64,11.64-5.22,11.64-11.64,11.64ZM236.25,172.41c-1.4,0-2.53,1.14-2.53,2.53s1.14,2.53,2.53,2.53,2.53-1.14,2.53-2.53-1.14-2.53-2.53-2.53Z"/>
      </g>
    </g>
  </g>
</svg>