<?xml version="1.0" encoding="UTF-8"?>
<svg id="_レイヤー_2" data-name="レイヤー 2" xmlns="http://www.w3.org/2000/svg" viewBox="0 0 301.22 257.69">
  <defs>
    <style>
      .cls-1 {
        fill: #bae3f9;
      }

      .cls-2 {
        fill: #231815;
      }

      .cls-3 {
        fill: #fff;
      }

      .cls-4 {
        fill: #5eb7e8;
      }

      .cls-5 {
        fill: #c9c9c4;
      }
    </style>
  </defs>
  <g id="_レイヤー_1-2" data-name="レイヤー 1">
    <g>
      <g>
        <path class="cls-5" d="M124.17,11.61L15.57,5.75c-12.33-1.68-14.03,23.05-.02,22.49,14.01-.56,109.74-4.79,109.74-4.79l-1.12-11.84Z"/>
        <path class="cls-2" d="M15.09,33.92c-5.52,0-10.17-2.71-12.83-7.52C-1.09,20.34-.68,11.78,3.24,6.06,6.26,1.65,10.93-.5,16.07.1l108.4,5.85c2.8.15,5.07,2.33,5.34,5.13l1.12,11.84c.15,1.55-.35,3.08-1.37,4.26-1.02,1.17-2.47,1.87-4.03,1.94-.96.04-95.9,4.24-109.77,4.79-.23,0-.46.01-.68.01ZM14.37,11.33c-.55,0-1.13.2-1.77,1.14-1.5,2.18-1.69,6.13-.41,8.44.69,1.24,1.6,1.73,3.14,1.66,11.81-.47,82.61-3.59,103.76-4.53l-.1-1.04L15.26,11.41c-.15,0-.31-.02-.46-.04-.14-.02-.29-.03-.43-.03Z"/>
      </g>
      <g>
        <path class="cls-5" d="M137.06,11.61l106.01-5.86c12.33-1.68,13.75,23.05-.26,22.49-14.01-.56-106.87-4.79-106.87-4.79l1.12-11.84Z"/>
        <path class="cls-2" d="M243.26,33.92c-.23,0-.46,0-.69-.01-13.87-.55-105.97-4.75-106.9-4.8-1.55-.07-3-.77-4.02-1.94-1.02-1.17-1.51-2.71-1.36-4.25l1.12-11.84c.26-2.79,2.53-4.97,5.33-5.13L242.56.1c5.12-.61,9.75,1.53,12.74,5.89,3.89,5.68,4.27,14.23.9,20.32-2.69,4.86-7.37,7.6-12.93,7.6ZM142.14,18.05c20.73.94,89.12,4.05,100.89,4.52,1.59.08,2.52-.44,3.24-1.75,1.29-2.34,1.14-6.28-.33-8.43-.76-1.11-1.42-1.12-2.1-1.03-.15.02-.3.04-.45.04l-101.14,5.59-.1,1.05Z"/>
      </g>
      <g>
        <path class="cls-5" d="M130.37,65.66h0c-3.89,0-7.08-3.18-7.08-7.08V16.06c0-3.89,3.18-7.08,7.08-7.08h0c3.89,0,7.08,3.18,7.08,7.08v42.52c0,3.89-3.18,7.08-7.08,7.08Z"/>
        <path class="cls-2" d="M130.37,71.33c-7.03,0-12.74-5.72-12.74-12.74V16.06c0-7.03,5.72-12.74,12.74-12.74s12.74,5.72,12.74,12.74v42.52c0,7.03-5.72,12.74-12.74,12.74ZM130.37,14.65c-.76,0-1.41.64-1.41,1.41v42.52c0,.76.64,1.41,1.41,1.41s1.41-.64,1.41-1.41V16.06c0-.76-.64-1.41-1.41-1.41Z"/>
      </g>
      <g>
        <polygon class="cls-5" points="108.33 66.67 114.88 49.1 146.22 49.1 151.34 67.37 108.33 66.67"/>
        <path class="cls-2" d="M151.34,73.04h-.09l-43.01-.7c-1.84-.03-3.55-.95-4.59-2.47-1.04-1.52-1.27-3.45-.63-5.18l6.55-17.57c.83-2.22,2.95-3.69,5.31-3.69h31.33c2.54,0,4.77,1.69,5.46,4.14l5.13,18.27c.48,1.72.12,3.58-.97,4.99-1.07,1.39-2.73,2.21-4.49,2.21ZM116.45,61.14l27.38.45-1.91-6.81h-23.1l-2.37,6.36Z"/>
      </g>
      <g>
        <path class="cls-4" d="M254.64,78.46s18.2-24.6,21.8-29.59c3.6-5,14.6-4.2,14.8,3.8.2,8,0,33.19,0,33.19l-36.59-7.4Z"/>
        <path class="cls-2" d="M291.23,91.53c-.37,0-.75-.04-1.12-.11l-36.59-7.4c-1.9-.38-3.47-1.71-4.17-3.52-.7-1.81-.42-3.85.73-5.41.18-.25,18.22-24.62,21.75-29.54,3.33-4.63,10.09-6.66,16.05-4.81,5.42,1.67,8.87,6.19,9.01,11.78.2,8,0,32.35,0,33.38-.01,1.69-.78,3.29-2.1,4.36-1.02.83-2.28,1.27-3.57,1.27ZM264.49,74.67l21.12,4.27c.04-8.04.09-20.91-.04-26.13-.01-.5-.02-.92-1.02-1.23-1.43-.44-3.11.06-3.51.6-2.37,3.3-10.87,14.81-16.54,22.49Z"/>
      </g>
      <g>
        <path class="cls-4" d="M254.64,107.86s18.2,24.6,21.8,29.59c3.6,5,14.6,4.2,14.8-3.8.2-8,0-33.19,0-33.19l-36.59,7.4Z"/>
        <path class="cls-2" d="M283.36,146.26c-4.58,0-9.02-2.01-11.53-5.49-3.54-4.91-21.57-29.29-21.75-29.54-1.15-1.56-1.43-3.6-.73-5.41.7-1.81,2.27-3.14,4.17-3.52l36.59-7.4c1.66-.33,3.38.09,4.7,1.15,1.31,1.07,2.08,2.67,2.1,4.36,0,1.03.2,25.38,0,33.38-.14,5.59-3.59,10.11-9.01,11.78-1.48.46-3.01.68-4.53.68ZM264.49,111.66c5.67,7.68,14.17,19.19,16.54,22.49.39.54,2.07,1.05,3.51.6,1-.31,1.01-.74,1.02-1.23.13-5.22.09-18.09.04-26.13l-21.12,4.27Z"/>
      </g>
      <path class="cls-2" d="M180.38,257.69H53.61c-4.62,0-9.83-1.99-13.96-5.32-4.83-3.9-7.49-8.95-7.49-14.21,0-3.13,2.54-5.67,5.67-5.67s5.67,2.54,5.67,5.67c0,3.96,5.93,8.2,10.11,8.2h126.77c3.13,0,5.67,2.54,5.67,5.67s-2.54,5.67-5.67,5.67Z"/>
      <path class="cls-2" d="M86.42,256.17c-.28,0-.57-.02-.85-.06-3.1-.47-5.23-3.36-4.76-6.45l5.04-33.44c.47-3.1,3.36-5.23,6.45-4.76,3.1.47,5.23,3.36,4.76,6.45l-5.04,33.44c-.42,2.81-2.84,4.83-5.6,4.83Z"/>
      <path class="cls-2" d="M145.3,253.99c-2.68,0-5.06-1.91-5.57-4.64l-8.29-44.82c-.57-3.08,1.47-6.04,4.54-6.61,3.07-.57,6.04,1.47,6.61,4.54l8.29,44.82c.57,3.08-1.47,6.04-4.54,6.61-.35.06-.7.09-1.04.09Z"/>
      <g>
        <rect class="cls-5" x="119.68" y="5.95" width="21.86" height="23.97"/>
        <path class="cls-2" d="M141.54,35.59h-21.86c-3.13,0-5.67-2.54-5.67-5.67V5.95c0-3.13,2.54-5.67,5.67-5.67h21.86c3.13,0,5.67,2.54,5.67,5.67v23.97c0,3.13-2.54,5.67-5.67,5.67ZM125.35,24.25h10.52v-12.63h-10.52v12.63Z"/>
      </g>
      <g>
        <path class="cls-1" d="M164.5,77.29c20.75,41.52,7.52,76.57-12.02,93.1-32.89,27.83-108.85,22.89-136.02-7.33-3.14-90.12,89.83-120.84,148.04-85.77Z"/>
        <path class="cls-2" d="M90.4,194.45c-30.64,0-61.87-9.48-78.16-27.6-.89-.99-1.4-2.26-1.45-3.59-1.4-40.21,15.29-72.62,46.98-91.27,32.96-19.39,77.02-19.21,109.65.44.92.55,1.67,1.36,2.15,2.32,10,20.02,13.32,40.61,9.59,59.55-3.19,16.2-11.37,30.55-23.02,40.42-15.73,13.31-40.54,19.74-65.74,19.74ZM22.07,160.74c12.12,12.2,35.06,20.61,60.59,22.09,27.16,1.57,51.9-4.7,66.17-16.77,18.54-15.69,29.07-47.86,11.34-84.75-29.01-16.73-67.63-16.6-96.63.46-27.39,16.11-42.06,44.11-41.46,78.98Z"/>
      </g>
      <path class="cls-3" d="M35.53,148.79c-.28,0-.56-.02-.85-.06-3.1-.47-5.23-3.35-4.76-6.45,2.82-18.73,11.32-35,24.6-47.06,12.11-11,27.59-18.13,44.78-20.62,3.1-.44,5.98,1.7,6.42,4.8.45,3.1-1.7,5.97-4.8,6.42-25.23,3.65-54.18,20.84-59.79,58.14-.42,2.81-2.84,4.83-5.6,4.83Z"/>
      <g>
        <path class="cls-3" d="M285.65,77.29h-121.15c15.2,30.41,12.16,57.34,1.77,76.08h38.95c3.3-9.92,5.41-20.9,6.11-32.96,0,0,59.44-12.59,74.32-17.17s11.45-25.95,0-25.95Z"/>
        <path class="cls-4" d="M152.48,170.39c-32.89,27.83-108.85,22.89-136.02-7.33-1.32,3.84,2.29,7.7,2.29,7.7,2.48,35.19,51.93,54.88,96.7,50.56,41.56-4.01,76.07-26.75,89.78-67.96h-38.95c-3.79,6.84-8.56,12.6-13.79,17.02Z"/>
        <path class="cls-2" d="M102.33,227.62c-27.91,0-54.21-8.23-70.87-22.6-12.68-10.94-19.82-25.35-20.66-41.68-.12-2.4,1.28-4.61,3.5-5.53,2.22-.92,4.78-.34,6.38,1.45,11.69,13,35.44,22.03,61.98,23.56,27.16,1.58,51.9-4.7,66.17-16.77,18.79-15.9,29.35-48.73,10.61-86.24-.88-1.76-.78-3.84.25-5.52,1.03-1.67,2.86-2.69,4.82-2.69h121.15c7.72,0,14.03,6.12,15.34,14.88,1.24,8.26-2.51,18.72-13.68,22.16-12.8,3.94-56.74,13.44-70.64,16.41-2.52,28.94-13.3,53.52-31.32,71.29-17.6,17.35-41.58,27.94-69.37,30.62-4.57.44-9.14.66-13.66.66ZM25.28,177.72c2.77,7.04,7.31,13.3,13.58,18.71,17.09,14.75,46.23,22.12,76.04,19.24,53.68-5.18,87.61-40.92,90.77-95.61.15-2.55,1.98-4.69,4.49-5.22.59-.13,59.36-12.59,73.83-17.04,6.59-2.03,5.99-8.38,5.8-9.63-.38-2.52-1.83-5.22-4.13-5.22h-112.36c7.06,17.39,9.1,34.99,5.88,51.35-3.19,16.2-11.37,30.55-23.02,40.42-15.73,13.31-40.54,19.73-65.74,19.74-23.77,0-47.89-5.71-65.13-16.73Z"/>
      </g>
    </g>
  </g>
</svg>