<?xml version="1.0" encoding="UTF-8"?>
<svg id="_レイヤー_2" data-name="レイヤー 2" xmlns="http://www.w3.org/2000/svg" viewBox="0 0 310.87 213.33">
  <defs>
    <style>
      .cls-1 {
        fill: #ea5532;
      }

      .cls-2 {
        fill: #9fa0a0;
      }

      .cls-3 {
        fill: #4c4948;
      }

      .cls-4 {
        fill: #eb6120;
      }

      .cls-5 {
        fill: #bae3f9;
      }

      .cls-6 {
        fill: #231815;
      }

      .cls-7 {
        fill: #c9caca;
      }

      .cls-8 {
        fill: #fff;
      }

      .cls-9 {
        fill: #fff100;
      }
    </style>
  </defs>
  <g id="_レイヤー_1-2" data-name="レイヤー 1">
    <g>
      <g>
        <polygon class="cls-8" points="119.67 5.67 117.5 37.06 246.18 64.25 236 5.67 119.67 5.67"/>
        <path d="M246.18,69.92c-.39,0-.78-.04-1.17-.12l-128.68-27.19c-2.77-.58-4.68-3.12-4.48-5.94l2.17-31.39c.21-2.97,2.68-5.28,5.66-5.28h116.33c2.76,0,5.11,1.98,5.59,4.7l10.18,58.58c.32,1.85-.3,3.75-1.65,5.05-1.07,1.03-2.48,1.59-3.94,1.59ZM123.5,32.54l115.66,24.44-7.93-45.63h-106.27l-1.46,21.2Z"/>
      </g>
      <g>
        <path class="cls-1" d="M131.96,58.15l-33.42-22.75c-7.74,0-14.08-6.33-14.08-14.08v-1.57c0-7.74,6.33-14.08,14.08-14.08h33.42v52.48Z"/>
        <path d="M131.96,63.82c-1.12,0-2.23-.33-3.19-.98l-32.1-21.86c-10.01-.95-17.87-9.4-17.87-19.66v-1.57c0-10.89,8.86-19.75,19.75-19.75h33.42c3.13,0,5.67,2.54,5.67,5.67v52.48c0,2.1-1.16,4.03-3.02,5.01-.83.44-1.74.66-2.65.66ZM98.54,11.34c-4.64,0-8.41,3.77-8.41,8.41v1.57c0,4.64,3.77,8.41,8.41,8.41,1.14,0,2.25.34,3.19.98l24.56,16.72V11.34h-27.75Z"/>
      </g>
      <g>
        <path class="cls-1" d="M236,62.59l33.42-27.2c7.74,0,14.08-6.33,14.08-14.08v-1.57c0-7.74-6.33-14.08-14.08-14.08h-33.42v56.92Z"/>
        <path d="M236,68.26c-.83,0-1.66-.18-2.43-.55-1.98-.94-3.23-2.93-3.23-5.12V5.67c0-3.13,2.54-5.67,5.67-5.67h33.42c10.89,0,19.75,8.86,19.75,19.75v1.57c0,10.16-7.71,18.55-17.59,19.63l-32,26.04c-1.03.84-2.3,1.27-3.58,1.27ZM241.67,11.34v39.33l24.17-19.67c1.01-.82,2.27-1.27,3.58-1.27,4.64,0,8.41-3.77,8.41-8.41v-1.57c0-4.64-3.77-8.41-8.41-8.41h-27.75Z"/>
      </g>
      <path class="cls-3" d="M50.2,183.62s0-.07,0-.14c0,.01.08.12.09.14h-.1ZM20.89,153.33s.07-.13.07-.14l.05.11s-.06.02-.13.04h0Z"/>
      <g>
        <g>
          <path class="cls-8" d="M301.18,58.58c-2.3-14.79-15.22-23.19-31.77-23.19H87.72c-11.17,0-24.84,9.57-37.45,24.15l14.75.13-24.11,66.16H15.47c-1.99,8-3.15,15.92-3.24,23.48-.36,31.81-.07,43.21-.07,43.21h293.04s-1.39-117-4.02-133.94Z"/>
          <path d="M305.2,198.19H12.16c-3.08,0-5.59-2.45-5.67-5.53-.01-.47-.29-11.87.07-43.42.09-7.74,1.23-16.08,3.41-24.79.63-2.52,2.9-4.3,5.5-4.3h21.47l20-54.89-6.73-.06c-2.21-.02-4.21-1.32-5.12-3.34-.91-2.01-.57-4.37.88-6.04,14.57-16.83,29.4-26.11,41.74-26.11h181.7c20.05,0,34.72,10.98,37.37,27.98,2.67,17.15,4.03,129.95,4.09,134.75.02,1.52-.57,2.97-1.64,4.05-1.06,1.08-2.52,1.68-4.03,1.68ZM17.76,186.85h281.71c-.54-41.7-1.94-114.91-3.88-127.4h0c-1.38-8.89-8.98-18.39-26.16-18.39H87.72c-6.57,0-15.22,4.69-24.21,12.93h1.56c1.84.03,3.56.94,4.61,2.45,1.05,1.51,1.3,3.44.67,5.17l-24.11,66.16c-.82,2.24-2.94,3.73-5.33,3.73h-20.92c-1.32,6.28-2.02,12.27-2.08,17.87-.22,19.42-.2,31.27-.15,37.48Z"/>
        </g>
        <g>
          <path class="cls-5" d="M117.19,59.67l-66.92-.13c-15.15,17.5-28.79,42.22-34.79,66.29h101.72V59.67Z"/>
          <path d="M117.19,131.5H15.47c-1.75,0-3.39-.8-4.47-2.18-1.07-1.38-1.46-3.17-1.03-4.86,5.93-23.78,19.39-49.44,36.01-68.63,1.08-1.24,2.64-1.96,4.29-1.96h.01l66.92.13c3.13,0,5.66,2.54,5.66,5.67v66.16c0,3.13-2.54,5.67-5.67,5.67ZM22.94,120.16h88.58v-54.83l-58.64-.12c-13.12,15.74-23.96,35.7-29.94,54.95Z"/>
        </g>
      </g>
      <g>
        <polygon class="cls-2" points="281.54 60.39 283.7 125.83 136.64 125.83 136.64 59.67 281.54 60.39"/>
        <path d="M283.7,131.5h-147.05c-3.13,0-5.67-2.54-5.67-5.67V59.67c0-1.51.6-2.95,1.67-4.02,1.07-1.06,2.55-1.64,4.03-1.65l144.89.72c3.05.02,5.54,2.44,5.64,5.48l2.16,65.44c.05,1.54-.52,3.03-1.59,4.13-1.07,1.1-2.54,1.73-4.07,1.73ZM142.31,120.16h135.52l-1.79-54.13-133.74-.67v54.79Z"/>
      </g>
      <path d="M208.37,128.85c-2.35,0-4.25-1.9-4.25-4.25v-63.48c0-2.35,1.9-4.25,4.25-4.25s4.25,1.9,4.25,4.25v63.48c0,2.35-1.9,4.25-4.25,4.25Z"/>
      <path d="M44.62,125.58c-.52,0-1.05-.1-1.57-.3-2.18-.87-3.25-3.34-2.39-5.52l23.55-59.38c.87-2.18,3.34-3.25,5.52-2.39,2.18.87,3.25,3.34,2.39,5.52l-23.55,59.38c-.66,1.67-2.26,2.69-3.95,2.69Z"/>
      <rect class="cls-4" x="13.82" y="140.02" width="284.69" height="17.92"/>
      <g>
        <path class="cls-9" d="M31.94,151.61c0,7.8-9.54,14.13-15.67,14.13s-9.03-6.33-9.03-14.13,2.89-14.13,9.03-14.13,15.67,6.33,15.67,14.13Z"/>
        <path d="M16.26,171.4c-8.93,0-14.7-7.77-14.7-19.8s5.77-19.8,14.7-19.8,21.34,8.31,21.34,19.8-12.75,19.8-21.34,19.8ZM16.26,143.15c-2.66,0-3.36,5.53-3.36,8.46s.7,8.46,3.36,8.46c3.5,0,10-4.35,10-8.46s-6.5-8.46-10-8.46Z"/>
      </g>
      <g>
        <polygon class="cls-8" points="81.49 171.86 75.5 197.85 8.5 197.85 5.67 171.47 81.49 171.86"/>
        <path d="M75.5,203.52H8.5c-2.9,0-5.33-2.18-5.64-5.06L.03,172.07c-.17-1.61.35-3.21,1.43-4.41,1.08-1.2,2.61-1.88,4.24-1.87l75.82.4c1.72,0,3.35.8,4.42,2.15,1.07,1.35,1.47,3.11,1.08,4.79l-5.99,25.98c-.59,2.57-2.88,4.4-5.52,4.4ZM13.6,192.18h57.39l3.38-14.68-62.39-.33,1.61,15.01Z"/>
      </g>
      <g>
        <circle class="cls-3" cx="91.23" cy="184.64" r="23.03" transform="translate(-56.51 41.16) rotate(-19.55)"/>
        <path class="cls-6" d="M91.23,213.33c-15.82,0-28.7-12.87-28.7-28.7s12.87-28.7,28.7-28.7,28.69,12.87,28.69,28.7-12.87,28.7-28.69,28.7ZM91.23,167.28c-9.57,0-17.36,7.79-17.36,17.36s7.79,17.36,17.36,17.36,17.36-7.79,17.36-17.36-7.79-17.36-17.36-17.36Z"/>
      </g>
      <g>
        <path class="cls-7" d="M95.04,184.64c0,2.11-1.71,3.81-3.81,3.81s-3.81-1.71-3.81-3.81,1.71-3.81,3.81-3.81,3.81,1.71,3.81,3.81Z"/>
        <path class="cls-7" d="M91.23,194.12c-5.23,0-9.48-4.25-9.48-9.48s4.25-9.48,9.48-9.48,9.48,4.25,9.48,9.48-4.25,9.48-9.48,9.48ZM91.23,182.78c-1.02,0-1.85.83-1.85,1.85s.83,1.86,1.85,1.86,1.85-.83,1.85-1.86-.83-1.85-1.85-1.85Z"/>
      </g>
      <g>
        <circle class="cls-3" cx="256.44" cy="184.64" r="23.03" transform="translate(-51.14 112.19) rotate(-22.5)"/>
        <path class="cls-6" d="M256.44,213.33c-15.82,0-28.69-12.87-28.69-28.7s12.87-28.7,28.69-28.7,28.7,12.87,28.7,28.7-12.87,28.7-28.7,28.7ZM256.44,167.28c-9.57,0-17.36,7.79-17.36,17.36s7.79,17.36,17.36,17.36,17.36-7.79,17.36-17.36-7.79-17.36-17.36-17.36Z"/>
      </g>
      <g>
        <path class="cls-7" d="M260.25,184.64c0,2.11-1.71,3.81-3.81,3.81s-3.81-1.71-3.81-3.81,1.71-3.81,3.81-3.81,3.81,1.71,3.81,3.81Z"/>
        <path class="cls-7" d="M256.44,194.12c-5.23,0-9.48-4.25-9.48-9.48s4.25-9.48,9.48-9.48,9.48,4.25,9.48,9.48-4.25,9.48-9.48,9.48ZM256.44,182.78c-1.02,0-1.85.83-1.85,1.85s.83,1.86,1.85,1.86,1.85-.83,1.85-1.86-.83-1.85-1.85-1.85Z"/>
      </g>
    </g>
  </g>
</svg>