<?xml version="1.0" encoding="UTF-8"?>
<svg id="_レイヤー_2" data-name="レイヤー 2" xmlns="http://www.w3.org/2000/svg" viewBox="0 0 301.8 224.34">
  <defs>
    <style>
      .cls-1 {
        fill: #ea5532;
      }

      .cls-2 {
        fill: #4c4948;
      }

      .cls-3 {
        fill: #eb6120;
      }

      .cls-4 {
        fill: #bae3f9;
      }

      .cls-5 {
        fill: #231815;
      }

      .cls-6 {
        fill: #c9caca;
      }

      .cls-7 {
        fill: #fff;
      }

      .cls-8 {
        fill: #f8f7f0;
      }
    </style>
  </defs>
  <g id="_レイヤー_1-2" data-name="レイヤー 1">
    <g>
      <g>
        <rect class="cls-3" x="104.19" y="55.11" width="180.59" height="106.93"/>
        <path d="M284.78,167.72H104.2c-3.13,0-5.67-2.54-5.67-5.67V55.11c0-3.13,2.54-5.67,5.67-5.67h180.59c3.13,0,5.67,2.54,5.67,5.67v106.93c0,3.13-2.54,5.67-5.67,5.67ZM109.86,156.38h169.25V60.78H109.86v95.59Z"/>
      </g>
      <g>
        <g>
          <path class="cls-3" d="M104.19,162.05V62.23l-70.19.72s-3.91,5.91-8.64,14.71l-16.47,53.76v69.81h282.6v-39.18H104.19Z"/>
          <path d="M291.5,206.9H8.9c-3.13,0-5.67-2.54-5.67-5.67v-69.81c0-.56.08-1.12.25-1.66l16.47-53.76c.11-.35.25-.7.43-1.02,4.8-8.93,8.74-14.91,8.9-15.16,1.04-1.57,2.79-2.52,4.67-2.54l70.19-.72s.04,0,.06,0c1.49,0,2.93.59,3.99,1.64,1.08,1.07,1.68,2.52,1.68,4.03v94.15h181.64c3.13,0,5.67,2.54,5.67,5.67v39.18c0,3.13-2.54,5.67-5.67,5.67ZM14.57,195.56h271.26v-27.84H104.2c-3.13,0-5.67-2.54-5.67-5.67v-94.09l-61.38.63c-1.48,2.39-3.86,6.36-6.52,11.27l-16.05,52.41v63.29Z"/>
        </g>
        <g>
          <path class="cls-4" d="M34.26,77.66h-10.41c-7.26,13.53-16.47,33.91-16.47,50.4v3.36h22.6l4.28-53.76Z"/>
          <path d="M29.98,135.67H7.38c-2.35,0-4.25-1.9-4.25-4.25v-3.36c0-17.19,9.23-37.99,16.97-52.41.74-1.38,2.18-2.24,3.75-2.24h10.41c1.19,0,2.32.5,3.12,1.37.81.87,1.21,2.04,1.12,3.22l-4.28,53.76c-.18,2.21-2.02,3.91-4.24,3.91ZM11.64,127.17h14.41l3.6-45.25h-3.25c-6.86,13.13-14.46,30.82-14.76,45.25Z"/>
        </g>
      </g>
      <g>
        <polygon class="cls-4" points="48.27 78.2 43.79 131.42 80.05 131.34 80.05 78.16 48.27 78.2"/>
        <path d="M43.79,135.67c-1.19,0-2.32-.5-3.13-1.37-.81-.88-1.21-2.05-1.11-3.24l4.48-53.21c.19-2.2,2.02-3.89,4.23-3.9l31.78-.04h0c1.13,0,2.21.45,3,1.24.8.8,1.25,1.88,1.25,3.01v53.18c0,2.34-1.9,4.25-4.24,4.25l-36.26.08h0ZM52.18,82.45l-3.76,44.7,27.38-.06v-44.68l-23.62.03Z"/>
      </g>
      <g>
        <path class="cls-7" d="M8.9,167.43h15.92c6.49-9.63,2.71-23.13,2.71-23.13H8.9v23.13Z"/>
        <path d="M24.82,173.1h-15.92c-3.13,0-5.67-2.54-5.67-5.67v-23.13c0-3.13,2.54-5.67,5.67-5.67h18.63c2.54,0,4.77,1.69,5.46,4.14.18.65,4.4,16.16-3.47,27.83-1.05,1.56-2.82,2.5-4.7,2.5ZM14.57,161.76h6.89c1.68-4.01,1.66-8.58,1.32-11.79h-8.21v11.79Z"/>
      </g>
      <g>
        <path class="cls-1" d="M76.38,61.45h-26.21c-6.73,0-12.23-5.5-12.23-12.23h0c0-6.73,5.5-12.23,12.23-12.23h26.21c6.73,0,12.23,5.5,12.23,12.23h0c0,6.73-5.5,12.23-12.23,12.23Z"/>
        <path d="M76.38,67.12h-26.21c-9.87,0-17.9-8.03-17.9-17.9s8.03-17.9,17.9-17.9h26.21c9.87,0,17.9,8.03,17.9,17.9s-8.03,17.9-17.9,17.9ZM50.17,42.66c-3.62,0-6.56,2.94-6.56,6.56s2.94,6.56,6.56,6.56h26.21c3.62,0,6.56-2.94,6.56-6.56s-2.94-6.56-6.56-6.56h-26.21Z"/>
      </g>
      <g>
        <circle class="cls-8" cx="130.92" cy="110.45" r="9.03" transform="translate(.88 221.93) rotate(-80.76)"/>
        <path d="M130.92,123.73c-7.32,0-13.28-5.96-13.28-13.28s5.96-13.28,13.28-13.28,13.28,5.96,13.28,13.28-5.96,13.28-13.28,13.28ZM130.92,105.67c-2.64,0-4.78,2.14-4.78,4.78s2.14,4.78,4.78,4.78,4.78-2.14,4.78-4.78-2.14-4.78-4.78-4.78Z"/>
      </g>
      <g>
        <circle class="cls-8" cx="157.27" cy="110.45" r="9.03" transform="translate(-32.04 143.55) rotate(-45)"/>
        <path d="M157.27,123.73c-7.32,0-13.28-5.96-13.28-13.28s5.96-13.28,13.28-13.28,13.28,5.96,13.28,13.28-5.96,13.28-13.28,13.28ZM157.27,105.67c-2.64,0-4.78,2.14-4.78,4.78s2.14,4.78,4.78,4.78,4.78-2.14,4.78-4.78-2.14-4.78-4.78-4.78Z"/>
      </g>
      <path d="M166.5,78.1h-44.7c-2.35,0-4.25-1.9-4.25-4.25s1.9-4.25,4.25-4.25h44.7c2.35,0,4.25,1.9,4.25,4.25s-1.9,4.25-4.25,4.25Z"/>
      <path d="M166.5,92.37h-44.7c-2.35,0-4.25-1.9-4.25-4.25s1.9-4.25,4.25-4.25h44.7c2.35,0,4.25,1.9,4.25,4.25s-1.9,4.25-4.25,4.25Z"/>
      <g>
        <polygon class="cls-2" points="38.22 181.98 32.23 207.96 8.5 207.96 5.67 181.58 38.22 181.98"/>
        <path d="M32.23,213.63H8.5c-2.9,0-5.33-2.18-5.64-5.06L.03,182.18c-.17-1.61.35-3.22,1.44-4.42,1.09-1.2,2.63-1.87,4.26-1.85l32.55.4c1.72.02,3.33.82,4.39,2.17,1.06,1.35,1.45,3.1,1.07,4.78l-5.99,25.98c-.59,2.57-2.88,4.4-5.52,4.4ZM13.6,202.29h14.12l3.39-14.73-19.12-.23,1.61,14.97Z"/>
      </g>
      <g>
        <path class="cls-8" d="M226.42,150.18c-24.52,0-44.47-19.95-44.47-44.47s19.95-44.47,44.47-44.47,44.47,19.95,44.47,44.47-19.95,44.47-44.47,44.47ZM226.42,75.93c-16.42,0-29.78,13.36-29.78,29.78s13.36,29.78,29.78,29.78,29.78-13.36,29.78-29.78-13.36-29.78-29.78-29.78Z"/>
        <path d="M226.42,154.44c-26.87,0-48.73-21.86-48.73-48.73s21.86-48.73,48.73-48.73,48.73,21.86,48.73,48.73-21.86,48.73-48.73,48.73ZM226.42,65.49c-22.18,0-40.22,18.04-40.22,40.22s18.04,40.22,40.22,40.22,40.22-18.04,40.22-40.22-18.04-40.22-40.22-40.22ZM226.42,139.74c-18.77,0-34.03-15.27-34.03-34.03s15.27-34.03,34.03-34.03,34.03,15.27,34.03,34.03-15.27,34.03-34.03,34.03ZM226.42,80.18c-14.08,0-25.53,11.45-25.53,25.53s11.45,25.53,25.53,25.53,25.53-11.45,25.53-25.53-11.45-25.53-25.53-25.53Z"/>
      </g>
      <g>
        <path class="cls-8" d="M241.11,150.18c-24.52,0-44.47-19.95-44.47-44.47s19.95-44.47,44.47-44.47,44.47,19.95,44.47,44.47-19.95,44.47-44.47,44.47ZM241.11,75.93c-16.42,0-29.78,13.36-29.78,29.78s13.36,29.78,29.78,29.78,29.78-13.36,29.78-29.78-13.36-29.78-29.78-29.78Z"/>
        <path d="M241.11,154.44c-26.87,0-48.73-21.86-48.73-48.73s21.86-48.73,48.73-48.73,48.73,21.86,48.73,48.73-21.86,48.73-48.73,48.73ZM241.11,65.49c-22.18,0-40.22,18.04-40.22,40.22s18.04,40.22,40.22,40.22,40.22-18.04,40.22-40.22-18.04-40.22-40.22-40.22ZM241.11,139.74c-18.77,0-34.03-15.27-34.03-34.03s15.27-34.03,34.03-34.03,34.03,15.27,34.03,34.03-15.27,34.03-34.03,34.03ZM241.11,80.18c-14.08,0-25.53,11.45-25.53,25.53s11.45,25.53,25.53,25.53,25.53-11.45,25.53-25.53-11.45-25.53-25.53-25.53Z"/>
      </g>
      <g>
        <circle class="cls-2" cx="75.38" cy="194.47" r="23.03" transform="translate(-131.14 223.63) rotate(-76.85)"/>
        <path class="cls-5" d="M75.38,223.17c-15.82,0-28.69-12.87-28.69-28.7s12.87-28.69,28.69-28.69,28.7,12.87,28.7,28.69-12.87,28.7-28.7,28.7ZM75.38,177.12c-9.57,0-17.36,7.79-17.36,17.36s7.79,17.36,17.36,17.36,17.36-7.79,17.36-17.36-7.79-17.36-17.36-17.36Z"/>
      </g>
      <g>
        <path class="cls-6" d="M79.19,194.47c0,2.11-1.71,3.81-3.81,3.81s-3.81-1.71-3.81-3.81,1.71-3.81,3.81-3.81,3.81,1.71,3.81,3.81Z"/>
        <path class="cls-6" d="M75.38,203.96c-5.23,0-9.48-4.25-9.48-9.48s4.25-9.48,9.48-9.48,9.48,4.25,9.48,9.48-4.25,9.48-9.48,9.48ZM75.38,192.62c-1.02,0-1.85.83-1.85,1.85s.83,1.85,1.85,1.85,1.85-.83,1.85-1.85-.83-1.85-1.85-1.85Z"/>
      </g>
      <g>
        <circle class="cls-2" cx="237.96" cy="195.65" r="23.03" transform="translate(6.48 398.92) rotate(-80.72)"/>
        <path class="cls-5" d="M237.96,224.34c-15.82,0-28.7-12.87-28.7-28.7s12.87-28.69,28.7-28.69,28.69,12.87,28.69,28.69-12.87,28.7-28.69,28.7ZM237.96,178.29c-9.57,0-17.36,7.79-17.36,17.36s7.79,17.36,17.36,17.36,17.36-7.79,17.36-17.36-7.79-17.36-17.36-17.36Z"/>
      </g>
      <g>
        <path class="cls-6" d="M241.77,195.65c0,2.11-1.71,3.81-3.81,3.81s-3.81-1.71-3.81-3.81,1.71-3.81,3.81-3.81,3.81,1.71,3.81,3.81Z"/>
        <path class="cls-6" d="M237.96,205.13c-5.23,0-9.48-4.25-9.48-9.48s4.25-9.48,9.48-9.48,9.48,4.25,9.48,9.48-4.25,9.48-9.48,9.48ZM237.96,193.79c-1.02,0-1.85.83-1.85,1.85s.83,1.86,1.85,1.86,1.85-.83,1.85-1.86-.83-1.85-1.85-1.85Z"/>
      </g>
      <g>
        <path class="cls-6" d="M296.13,22.2V5.67H104.19v16.53h10.05v16.37h-10.05v16.53h191.93v-16.53h-10.37v-16.37h10.37ZM192.19,22.2h15.63v16.37h-15.63v-16.37ZM176.62,38.58h-15.63v-16.37h15.63v16.37ZM223.38,22.2h15.63v16.37h-15.63v-16.37ZM129.81,22.2h15.63v16.37h-15.63v-16.37ZM270.19,38.58h-15.63v-16.37h15.63v16.37Z"/>
        <path d="M296.13,60.78H104.2c-3.13,0-5.67-2.54-5.67-5.67v-16.53c0-3.13,2.54-5.67,5.67-5.67h4.38v-5.03h-4.38c-3.13,0-5.67-2.54-5.67-5.67V5.67c0-3.13,2.54-5.67,5.67-5.67h191.93c3.13,0,5.67,2.54,5.67,5.67v16.53c0,3.13-2.54,5.67-5.67,5.67h-4.7v5.03h4.7c3.13,0,5.67,2.54,5.67,5.67v16.53c0,3.13-2.54,5.67-5.67,5.67ZM109.86,49.44h180.59v-5.2h-4.7c-3.13,0-5.67-2.54-5.67-5.67v-16.37c0-3.13,2.54-5.67,5.67-5.67h4.7v-5.2H109.86v5.2h4.38c3.13,0,5.67,2.54,5.67,5.67v16.37c0,3.13-2.54,5.67-5.67,5.67h-4.38v5.2ZM270.19,44.25h-15.63c-3.13,0-5.67-2.54-5.67-5.67v-16.37c0-3.13,2.54-5.67,5.67-5.67h15.63c3.13,0,5.67,2.54,5.67,5.67v16.37c0,3.13-2.54,5.67-5.67,5.67ZM260.23,32.91h4.29v-5.03h-4.29v5.03ZM239,44.25h-15.63c-3.13,0-5.67-2.54-5.67-5.67v-16.37c0-3.13,2.54-5.67,5.67-5.67h15.63c3.13,0,5.67,2.54,5.67,5.67v16.37c0,3.13-2.54,5.67-5.67,5.67ZM229.05,32.91h4.29v-5.03h-4.29v5.03ZM207.81,44.25h-15.63c-3.13,0-5.67-2.54-5.67-5.67v-16.37c0-3.13,2.54-5.67,5.67-5.67h15.63c3.13,0,5.67,2.54,5.67,5.67v16.37c0,3.13-2.54,5.67-5.67,5.67ZM197.86,32.91h4.29v-5.03h-4.29v5.03ZM176.62,44.25h-15.63c-3.13,0-5.67-2.54-5.67-5.67v-16.37c0-3.13,2.54-5.67,5.67-5.67h15.63c3.13,0,5.67,2.54,5.67,5.67v16.37c0,3.13-2.54,5.67-5.67,5.67ZM166.67,32.91h4.29v-5.03h-4.29v5.03ZM145.44,44.25h-15.63c-3.13,0-5.67-2.54-5.67-5.67v-16.37c0-3.13,2.54-5.67,5.67-5.67h15.63c3.13,0,5.67,2.54,5.67,5.67v16.37c0,3.13-2.54,5.67-5.67,5.67ZM135.48,32.91h4.29v-5.03h-4.29v5.03Z"/>
      </g>
    </g>
  </g>
</svg>