<?xml version="1.0" encoding="UTF-8"?>
<svg id="_レイヤー_2" data-name="レイヤー 2" xmlns="http://www.w3.org/2000/svg" viewBox="0 0 327.89 256.27">
  <defs>
    <style>
      .cls-1 {
        fill: #eab300;
      }

      .cls-2 {
        fill: #65615f;
      }

      .cls-3 {
        fill: #bae3f9;
      }

      .cls-4 {
        fill: #231815;
      }

      .cls-5 {
        fill: #bfc0c0;
      }

      .cls-6 {
        fill: #949495;
      }

      .cls-7 {
        fill: #fcc80e;
      }
    </style>
  </defs>
  <g id="_レイヤー_1-2" data-name="レイヤー 1">
    <g>
      <g>
        <path class="cls-7" d="M73.95,10.12L18.84,152.77l15.89,5.5,58.29-102.25c10.32-22.69-12.89-63.96-19.08-45.9Z"/>
        <path class="cls-4" d="M34.73,163.94c-.62,0-1.24-.1-1.85-.31l-15.89-5.5c-1.45-.5-2.64-1.58-3.29-2.97-.65-1.4-.7-2.99-.15-4.43L68.62,8.17c2.05-5.87,5.63-7.62,8.29-8.05,3.06-.5,7.8.34,13.03,7.17,4.41,5.77,8.16,14.45,10.03,23.22,1.59,7.43,2.57,18.3-1.78,27.86-.07.16-.15.31-.24.46l-58.29,102.25c-1.03,1.81-2.94,2.86-4.93,2.86ZM26.25,149.33l5.9,2.04,55.83-97.92c4-9.1,1.31-22.15-2.23-30.61-2.39-5.72-4.93-9.1-6.53-10.63L26.25,149.33ZM73.95,10.12h0,0Z"/>
      </g>
      <g>
        <path class="cls-7" d="M72.13,231.65l-34.51-74.69-16.2,3.45c-28.29,41.63-15.98,88.77,17.09,81.05,31.31-7.31,49.18-11.49,49.18-11.49l-15.56,1.68Z"/>
        <path class="cls-4" d="M31.64,247.95c-9.82,0-18.35-4.46-24.1-12.83-6.05-8.8-8.58-21.27-7.15-35.1,1.5-14.48,7.16-29.28,16.34-42.79.82-1.21,2.08-2.05,3.51-2.36l16.2-3.45c2.59-.55,5.22.76,6.33,3.17l33.38,72.26,10.25-2.39c3.05-.71,6.1,1.18,6.81,4.23.71,3.05-1.18,6.1-4.23,6.81l-49.18,11.49c-2.8.65-5.53.97-8.17.97ZM24.87,165.48c-16.38,25.31-16.52,50.8-7.98,63.23,4.64,6.76,11.67,9.26,20.34,7.23l27.66-6.46-30.5-66.03-9.51,2.03Z"/>
      </g>
      <g>
        <circle class="cls-1" cx="24.48" cy="157.96" r="15.62"/>
        <path class="cls-4" d="M24.48,179.25c-11.74,0-21.29-9.55-21.29-21.29s9.55-21.29,21.29-21.29,21.29,9.55,21.29,21.29-9.55,21.29-21.29,21.29ZM24.48,148.01c-5.49,0-9.95,4.46-9.95,9.95s4.46,9.95,9.95,9.95,9.95-4.46,9.95-9.95-4.46-9.95-9.95-9.95Z"/>
      </g>
      <g>
        <path class="cls-7" d="M90.82,31.97l93,80.63c5.32,4.62,5.9,12.68,1.28,18-4.62,5.32-12.68,5.9-18,1.28-.36-.25-88.78-85.44-89.19-85.79-8.6-8.89,3.23-21.89,12.91-14.13h0Z"/>
        <path class="cls-4" d="M175.45,140.66c-4.28,0-8.58-1.48-12.06-4.5h.01c-1.47-1.34-8.96-8.55-58.23-55.99-16.26-15.65-30.31-29.18-31.1-29.93-.08-.07-.15-.14-.22-.22-6.67-6.89-5.31-15.81-.52-21.06,4.79-5.26,13.56-7.44,21.05-1.43.06.04.11.09.17.14l93,80.63c3.72,3.22,5.96,7.7,6.31,12.61.35,4.91-1.23,9.66-4.46,13.38-3.64,4.2-8.77,6.35-13.94,6.35ZM170.86,127.64c2.96,2.52,7.41,2.19,9.96-.75,1.24-1.43,1.85-3.26,1.72-5.15-.13-1.89-1-3.61-2.43-4.85L87.19,36.33c-2.76-2.16-4.76-.53-5.5.28-.73.81-2.17,2.95.23,5.48,1,.95,5.73,5.5,31.1,29.92,23.65,22.77,55.96,53.88,57.83,55.63Z"/>
      </g>
      <g>
        <path class="cls-2" d="M171.79,169.46h-6.84v-48.01c0-29.82,20.53-53.29,33.73-53.29h51.7v101.79l-78.59-.49Z"/>
        <path class="cls-4" d="M250.38,175.62h-.04l-78.58-.49h-6.83c-3.13,0-5.67-2.54-5.67-5.67v-48.01c0-14.69,4.6-29.28,12.96-41.1,7.91-11.18,17.79-17.86,26.45-17.86h51.71c3.13,0,5.67,2.54,5.67,5.67v101.79c0,1.51-.6,2.96-1.67,4.02-1.06,1.06-2.5,1.65-4,1.65ZM170.61,163.79h1.21l72.89.45v-90.42h-46.04c-9.36,0-28.07,20.59-28.07,47.62v42.34Z"/>
      </g>
      <g>
        <rect class="cls-6" x="147.27" y="202.8" width="166.63" height="47.8" rx="23.9" ry="23.9"/>
        <path class="cls-4" d="M289.99,256.27h-118.83c-16.31,0-29.57-13.26-29.57-29.57s13.27-29.57,29.57-29.57h118.83c16.31,0,29.57,13.26,29.57,29.57s-13.26,29.57-29.57,29.57ZM171.17,208.47c-10.05,0-18.23,8.18-18.23,18.23s8.18,18.23,18.23,18.23h118.83c10.05,0,18.23-8.18,18.23-18.23s-8.18-18.23-18.23-18.23h-118.83Z"/>
      </g>
      <g>
        <circle class="cls-5" cx="171.58" cy="226.57" r="12.31"/>
        <path class="cls-4" d="M171.58,243.13c-9.13,0-16.56-7.43-16.56-16.56s7.43-16.56,16.56-16.56,16.56,7.43,16.56,16.56-7.43,16.56-16.56,16.56ZM171.58,218.51c-4.44,0-8.06,3.62-8.06,8.06s3.62,8.06,8.06,8.06,8.06-3.62,8.06-8.06-3.62-8.06-8.06-8.06Z"/>
      </g>
      <g>
        <circle class="cls-5" cx="202.7" cy="229.9" r="8.98" transform="translate(-103.2 210.67) rotate(-45)"/>
        <path class="cls-4" d="M202.7,243.13c-7.29,0-13.23-5.93-13.23-13.23s5.93-13.23,13.23-13.23,13.23,5.93,13.23,13.23-5.93,13.23-13.23,13.23ZM202.7,225.18c-2.6,0-4.72,2.12-4.72,4.72s2.12,4.72,4.72,4.72,4.72-2.12,4.72-4.72-2.12-4.72-4.72-4.72Z"/>
      </g>
      <g>
        <circle class="cls-5" cx="230.5" cy="229.9" r="8.98" transform="translate(-46.22 401.41) rotate(-76.72)"/>
        <path class="cls-4" d="M230.5,243.13c-7.29,0-13.23-5.93-13.23-13.23s5.93-13.23,13.23-13.23,13.23,5.93,13.23,13.23-5.93,13.23-13.23,13.23ZM230.5,225.18c-2.6,0-4.72,2.12-4.72,4.72s2.12,4.72,4.72,4.72,4.72-2.12,4.72-4.72-2.12-4.72-4.72-4.72Z"/>
      </g>
      <g>
        <circle class="cls-5" cx="258.29" cy="229.9" r="8.98" transform="translate(-10.02 448.04) rotate(-80.78)"/>
        <path class="cls-4" d="M258.29,243.13c-7.29,0-13.23-5.93-13.23-13.23s5.93-13.23,13.23-13.23,13.23,5.93,13.23,13.23-5.93,13.23-13.23,13.23ZM258.29,225.18c-2.6,0-4.72,2.12-4.72,4.72s2.12,4.72,4.72,4.72,4.72-2.12,4.72-4.72-2.12-4.72-4.72-4.72Z"/>
      </g>
      <g>
        <circle class="cls-5" cx="289.73" cy="226.57" r="12.31"/>
        <path class="cls-4" d="M289.73,243.13c-9.13,0-16.56-7.43-16.56-16.56s7.43-16.56,16.56-16.56,16.56,7.43,16.56,16.56-7.43,16.56-16.56,16.56ZM289.73,218.51c-4.44,0-8.06,3.62-8.06,8.06s3.62,8.06,8.06,8.06,8.06-3.62,8.06-8.06-3.62-8.06-8.06-8.06Z"/>
      </g>
      <g>
        <path class="cls-7" d="M176.04,187.84h146.18v-30.8c0-15.64-6.84-23.96-17.6-23.96h-53.78l-53.48,36.38h-21.32v18.38Z"/>
        <path class="cls-4" d="M322.22,193.51h-146.18c-3.13,0-5.67-2.54-5.67-5.67v-18.38c0-3.13,2.54-5.67,5.67-5.67h19.58l52.04-35.39c.94-.64,2.05-.98,3.19-.98h53.78c17.16,0,23.27,15.3,23.27,29.62v30.8c0,3.13-2.54,5.67-5.67,5.67ZM181.71,182.17h134.85v-25.13c0-8.34-2.07-18.29-11.93-18.29h-52.04l-52.04,35.39c-.94.64-2.05.98-3.19.98h-15.65v7.04Z"/>
      </g>
      <g>
        <path class="cls-3" d="M212.9,85.1h-10.08c-5.14,0-19.98,14.18-19.98,36.1v18.71l30.06-7.08v-47.73Z"/>
        <path class="cls-4" d="M182.83,145.58c-1.26,0-2.51-.42-3.52-1.22-1.36-1.08-2.15-2.71-2.15-4.44v-18.71c0-24.54,16.64-41.77,25.65-41.77h10.08c3.13,0,5.67,2.54,5.67,5.67v47.73c0,2.63-1.81,4.92-4.37,5.52l-30.06,7.08c-.43.1-.87.15-1.3.15ZM203.13,90.77c-3.24,1.14-14.63,12.5-14.63,30.43v11.55l18.73-4.41v-37.57h-4.1Z"/>
      </g>
    </g>
  </g>
</svg>